<svg version="1.1" xmlns="http://www.w3.org/2000/svg" viewBox="0 0 686.2109375 415.30859375">
  <!-- svg-source:excalidraw -->
  <defs>
    <style>
      @font-face {
        font-family: "Virgil";
        src: url("https://excalidraw.com/FG_Virgil.woff2");
      }
      @font-face {
        font-family: "Cascadia";
        src: url("https://excalidraw.com/Cascadia.woff2");
      }
    </style>
  </defs>
  <rect x="0" y="0" width="686.2109375" height="415.30859375" fill="#ffffff"></rect><g transform="translate(10 10) rotate(0 333.10546875 197.654296875)"><path d="M0.24409381598234178 0.25259128361940386 C196.5439904491985 1.520347197681258, 394.6660718358326 1.1981973010595537, 666.1590717956424 0.39058495312929153 M0.11324954405426979 0.26874104365706447 C160.81189471908291 -1.5861288658124977, 320.5508269119338 -1.5715867391569192, 666.2988075055182 -0.026963631063699724 M667.3290621549405 -0.7892140514281473 C666.3134320983633 121.84959728647354, 667.0160730009552 244.57284561814043, 665.2827890748936 396.1818340181167 M666.4618048896765 0.5587215133321016 C667.8100323735782 126.5251504858128, 667.4354749308428 254.01332876018301, 665.9337077673829 395.1581533885996 M666.9287944957614 395.783636148274 C456.253697712849 396.1491317815599, 247.37178177710442 396.9521985597429, 0.2549876853823662 395.01915484219796 M665.9889328040183 394.9199140153826 C491.43065860172356 396.7372299249998, 317.69357962037606 397.0775670345655, -0.06312367543578148 395.4656567893923 M0.14602316608896568 394.54326380546354 C-0.6018852387786424 277.5394272349574, -1.088041302100268 159.4612031626716, -0.8307818591719697 -0.31013202140583523 M-0.08673863085165444 394.8204826222873 C2.7757491693867533 298.56189078441014, 2.501200030143158 202.6396477826604, 0.059917349523656946 0.5714555470702956" stroke="#000000" stroke-width="1" fill="none"></path></g><g><g transform="translate(102.5035213291992 34.71484375) rotate(0 -16.01698393223981 36.92291189278333)"><path d="M21.083228964323823 0.7718561522662639 C14.13298052907587 1.9724824807040213, -10.72774170730998 3.1570160765130995, -22.565461635529072 8.28497574761052 C-34.40318156374816 13.412935418707942, -45.24539908116569 24.193969948556475, -49.94309060499072 31.53961417885079 C-54.64078212881576 38.88525840914511, -53.163745150493114 46.24258982387931, -50.7516107784793 52.35884112937642 C-48.33947640646548 58.47509243487354, -40.52934841180997 65.03886537186813, -35.470284372907834 68.23712201183348 C-30.411220334005698 71.43537865179883, -26.51148235587523 70.63551012135744, -20.39722654506648 71.54838096916849 C-14.28297073425773 72.46125181697954, -2.2892725781620085 73.70007788577996, 1.2152504919446554 73.71434709869973 M20.182329451583968 0.1314766868669539 C13.209878385994962 2.048933822334912, -11.434802152233102 4.342279192695858, -23.162635925621736 9.804818684724237 C-34.89046969901037 15.267358176752616, -45.55951782318648 25.718173862485415, -50.18467318874784 32.90671363903723 C-54.80982855430919 40.09525341558904, -53.1366158865873 46.96928782115318, -50.91356811898986 52.93605734403511 C-48.690520351392415 58.902826866917046, -41.660322004480605 65.75257356767555, -36.846386583163174 68.70733077632882 C-32.03245116184574 71.66208798498208, -28.543162536277702 69.96152191360184, -22.029955591085276 70.66460059595468 C-15.51674864589285 71.36767927830752, -1.384049149229058 72.30021590820462, 2.2328550879913864 72.92580287044585" stroke="#000000" stroke-width="1" fill="none"></path></g></g><g><g transform="translate(189.49609375 45.08203125) rotate(0 -23.204027420947853 31.848691825676894)"><path d="M-0.2983671180903912 -0.07915734127163887 C-4.9699009649455546 -0.10901013687252999, -20.45719803099831 -2.0002949443956215, -27.473551773279905 -0.7348354943096638 C-34.4899055155615 0.5306239557762942, -38.362781754384436 3.7047726504504683, -42.396489571779966 7.513599359244108 C-46.4301973891755 11.322426068037748, -49.993088022122784 15.238839319596686, -51.67579867765308 22.118124758452176 C-53.35850933318337 28.997410197307666, -54.542412081609164 41.703361768772204, -52.492753504961726 48.789311992377044 C-50.44309492831429 55.875262215981884, -43.48408563857277 63.053963370372855, -39.37784721776843 64.63382610008121 C-35.271608796964095 66.21368882978956, -32.42138831540942 59.1647570801278, -27.85532298013568 58.26848837062717 C-23.289257644861934 57.372219661126536, -15.897313276181618 59.48147043709953, -11.981455206125975 59.25621384307742 C-8.065597136070332 59.030957249055305, -7.245478684951863 59.86337264701724, -4.360174559801817 56.916948806494474 C-1.474870434651772 53.970524965971705, 3.7023202108840154 47.648118332276745, 5.330369544774294 41.577670799940826 C6.958418878664573 35.50722326760491, 6.2825173305968445 25.650836073607206, 5.408121443539858 20.49426361247897 C4.533725556482871 15.337691151350736, 3.1556351351241267 13.6179044517378, 0.08399422243237487 10.638236033171415 C-2.987646690259377 7.65856761460503, -10.81988724792997 3.929035380731026, -13.021724032610654 2.6162531010806562 M1.7458514155726879 -1.166318890778348 C-3.1501750053185966 -1.0372129839938136, -21.05787711622504 -1.3904179238559056, -28.52870801162906 0.23838315364904705 C-35.999538907033084 1.8671842311539997, -39.1691232817589 4.752904757829382, -43.079133956851436 8.606487574251368 C-46.98914463194397 12.460070390673353, -50.73813273451912 16.675527235936997, -51.98877206218429 23.359880052180962 C-53.23941138984946 30.044232868424928, -52.91000241867887 41.94020107703594, -50.58296992284246 48.71260447171517 C-48.255937427006046 55.4850078663944, -41.87383643986968 62.08303396748689, -38.02657708716579 63.99430042025633 C-34.179317734461904 65.90556687302576, -31.684595023514703 61.103750130108864, -27.499413806619124 60.180203188331795 C-23.314232589723545 59.256656246554726, -16.593797639828797 59.154752824179205, -12.915489785792307 58.45301876959391 C-9.237181931755817 57.751284715008616, -8.6113719621518 58.83898892876692, -5.429566682400182 55.96979886082001 C-2.2477614026485635 53.1006087928731, 4.315856549718107 46.97073019273269, 6.175341892717406 41.23787836191244 C8.034827235716705 35.5050265310922, 6.929633399524416 26.680599276395515, 5.727345375595615 21.572687875898556 C4.525057351666813 16.464776475401596, 2.0251969295522816 13.805283293199414, -1.0383862508554011 10.590409958930685 C-4.101969431263084 7.375536624661956, -10.53583105437147 3.525554643046732, -12.654153706850483 2.2834478702861816" stroke="#000000" stroke-width="1" fill="none"></path></g></g><g><g transform="translate(226.05201591757532 33.28125) rotate(0 19.423000184408068 36.04950672686252)"><path d="M-0.05357543304562573 1.06027145460248 C0.5894899730062174 12.09378071664782, -3.9155431736495054 56.53430987888122, 2.913990944877677 66.99666259148786 C9.74352506340486 77.4590153040945, 34.7894437811649 64.5686407791241, 40.923629278117474 63.83438773024235 M-1.5408412647340448 0.5713100229296835 C-0.94136581931691 11.683829486965626, -4.804271739679547 57.99769904280187, 2.1567226673126596 68.19963625053572 C9.117717074304867 78.40157345826957, 34.01777539514327 62.593979129071805, 40.22512517721919 61.78293326933276" stroke="#000000" stroke-width="1" fill="none"></path></g></g><g><g transform="translate(318.609375 37.00390625) rotate(0 0.2246426009314746 33.54352606775166)"><path d="M1.0970274455845355 1.0118258111178873 C-0.26298754140734704 1.156904350966215, -4.88869250540932 -0.2636890299618244, -7.857052778452635 0.7764250628650189 C-10.82541305149595 1.8165391556918622, -14.192149662226438 2.2629255009194216, -16.71313419267535 7.252510368078947 C-19.234118723124265 12.242095235238473, -21.698926368604102 25.31627673630913, -22.982959961146115 30.71393426582217 C-24.266993553688128 36.111591795335215, -26.057093913604817 35.0038109652698, -24.417335747927428 39.63845554515719 C-22.77757758225004 44.273100125044586, -17.697405877957742 54.07372968519727, -13.144410967081786 58.52180174514651 C-8.59141605620583 62.96987380509575, -2.321839800725381 65.30196876848737, 2.9006337173283097 66.32688790485263 C8.123107235382001 67.35180704121788, 14.935074695696434 66.0987088792026, 18.19043014124036 64.67131656333804 C21.445785586784282 63.24392424747347, 21.555995488911865 64.45407859807213, 22.43276639059186 57.76253400966525 C23.309537292271852 51.070989421258375, 28.26628878985842 32.470315880825126, 23.451055551320316 24.522049032896756 C18.63582231278221 16.57378218496839, -1.5990437738597398 12.484945141524076, -6.458633040636778 10.07293292209506 M0.21382812517695138 0.49743041661567977 C-1.3793976594228297 0.8040976255852728, -6.185427674076829 0.7629842206556352, -9.097140794517472 2.007801597090438 C-12.008853914958115 3.252618973525241, -14.477669106842951 2.9738144172945375, -17.256450597466902 7.966334675224498 C-20.035232088090854 12.95885493315446, -24.92004402540314 26.69586539017347, -25.76982973826118 31.962923144670203 C-26.61961545111922 37.22998089916694, -24.603183228097237 34.76651110169478, -22.35516487461515 39.5686812022049 C-20.10714652113306 44.37085130271502, -16.059120508056754 56.46682017571914, -12.281719617368653 60.77594374773093 C-8.504318726680552 65.08506731974272, -4.68077181987154 64.87447256423222, 0.30924046951346096 65.42342263427562 C5.2992527588984615 65.97237270431903, 13.665799095410234 65.50620746401138, 17.658354118941354 64.06964416799136 C21.65090914247247 62.63308087197132, 23.260182793615385 63.42946394162563, 24.264570610700176 56.80404285815544 C25.268958427784966 50.178621774685254, 28.84220746077908 32.480479891768965, 23.68468102145009 24.31711766717024 C18.5271545821211 16.153755442571516, -2.132071503521874 10.203406620593741, -6.680588025273755 7.823869510563091" stroke="#000000" stroke-width="1" fill="none"></path></g></g><g><g transform="translate(373.890625 37.29296875) rotate(0 -0.8658959136508315 37.929826023885965)"><path d="M-0.10289639309048648 1.0882091291248799 C-0.09707820887366926 13.609394042442243, -0.11027667199571928 61.992839011301605, -0.20087801292538643 74.2471255786717 M-1.6160557288024575 0.6139149765763432 C-1.7351261616839717 13.326663936336214, -1.081400168746089 62.75052737420735, -1.0739156833384187 75.24573707119562" stroke="#000000" stroke-width="1" fill="none"></path></g></g><g><g transform="translate(359.53515625 39.53125) rotate(0 22.82466390721038 41.04183444642294)"><path d="M-1.003157389909029 -1.0103682987391949 C1.5502323580284916 -0.9714758150279522, 10.190452626595896 -1.087173047910134, 15.17357031032443 0.38666842058300976 C20.156687994052966 1.8605098890761536, 26.144543913255134 3.320382571965456, 28.895548712462187 7.832680512219667 C31.64655351166924 12.344978452473878, 32.28426676119367 23.763746246447166, 31.67959910556674 27.46045606210828 C31.074931449939807 31.15716587776939, 27.830218501140674 29.439508144805828, 25.26754277870059 30.01293940618634 C22.704867056260507 30.586370667566854, 12.789715213825305 21.925248019645615, 16.303544770926237 30.90104363039136 C19.81737432802717 39.876839241137105, 41.1488490216434 74.89880604023735, 46.35052012130618 83.86771307066083 M0.6710462510492654 1.0735843990836291 C3.594043937216824 0.7272631849441675, 12.731538183481124 -2.8062566410905374, 17.314246915867553 -1.532905407389626 C21.896955648253982 -0.2595541736887148, 26.240417502016452 4.234385669389739, 28.167298645367847 8.713691801289096 C30.09417978871924 13.192997933188455, 29.50778252878847 21.803363815008975, 28.875533775975928 25.342931384006516 C28.243285023163384 28.882498953004056, 26.749870548139636 28.653468831737214, 24.37380612849258 29.95109721527435 C21.99774170884552 31.248725598811482, 10.90603407878739 24.35317860450285, 14.61914725809358 33.128701685229316 C18.332260437399768 41.90422476595578, 41.29611066549085 73.97561620052593, 46.652485204329714 82.60423569963314" stroke="#000000" stroke-width="1" fill="none"></path></g></g><g><g transform="translate(423.40234375 43.50390625) rotate(0 -0.20088709308299713 41.3838096543262)"><path d="M-0.21575236245989804 -0.9822883017361164 C0.06038784260551128 12.630638952304919, 1.3279018727441627 68.59674194181959, 1.3863868959248065 82.57638443633914 M-1.78816108209081 1.1164063945133238 C-1.5797560581782213 14.794404220751797, 0.6879939869822315 69.93318832762229, 0.8380695526581259 83.74990761038848" stroke="#000000" stroke-width="1" fill="none"></path></g></g><g><g transform="translate(406.48046875 37.7109375) rotate(0 29.265605178098212 0.6348176029371189)"><path d="M0.12987006828188896 0.15806603506207462 C10.267848439266285 0.6611003644764423, 50.01267686213056 1.870254612714052, 59.792297231405975 2.074188447743654 M-1.261086875209585 -0.8045532418694348 C8.844970961104456 -0.5476479850616307, 49.22402389267149 -0.1872341461386532, 59.057180470516904 0.41302357153035696" stroke="#000000" stroke-width="1" fill="none"></path></g></g><g><g transform="translate(415.92578125 74.01171875) rotate(0 24.618935783235372 0.1319538105139486)"><path d="M-0.22360308095812798 -0.7443209297955036 C8.098774052411317 -0.9933410532772541, 40.41524717882275 -0.9815560467541218, 48.91174159124493 -1.2153990156948566 M-1.8001334278006107 1.4793066367227583 C6.966077833650634 1.4074831497389821, 42.34267018812709 0.7745260825473814, 51.038004994271326 0.30532847103662775" stroke="#000000" stroke-width="1" fill="none"></path></g></g><g><g transform="translate(488.49609375 44.4609375) rotate(0 19.99354199892963 26.643664659346854)"><path d="M0.663055884093046 -0.029418944567441985 C0.9644268942375976 9.51845028474927, -1.8822592703004677 44.04974249278506, 2.6478142850100994 56.25038297250867 C7.1778878403206665 68.45102345223228, 22.6033327691257 71.9578692999979, 27.84349721595645 73.17442393377424 C33.0836616627872 74.39097856755058, 32.26874582295616 69.61829179202518, 34.088800965994594 63.54971077516675 C35.908856109033024 57.481129758308334, 38.13848347192009 49.91353763813774, 38.76382807418704 36.76293783262372 C39.38917267645399 23.6123380271097, 38.37090346341332 -6.738188409060239, 37.84086857959628 -15.353888057917356 C37.310833695779245 -23.969587706774472, 35.95040521149834 -15.004358680297932, 35.58361877128482 -14.93126006051898 M-0.44797850609757006 -1.0904678358044477 C-0.31525666068928937 8.67357040897943, -2.4978337874108307 45.24222705846963, 2.0767853835131973 57.314278815547006 C6.651404554437225 69.38633057262439, 21.69580292909406 70.1149611327642, 26.999736519446596 71.3418427066598 C32.30367010979913 72.56872428055541, 31.638605285476274 70.46440710014043, 33.90038692562841 64.67556825892069 C36.16216856578055 58.88672941770095, 39.690521503578246 50.07136380906837, 40.57042636035941 36.60880965934135 C41.45033121714058 23.14625550961432, 39.95800045628411 -7.269245543023574, 39.1798160663154 -16.099756639441477 C38.40163167634668 -24.93026773585938, 36.10149166751964 -16.500040076415363, 35.90132002054714 -16.374256919166072" stroke="#000000" stroke-width="1" fill="none"></path></g></g><g><g transform="translate(550.62109375 34.078125) rotate(0 29.592769629871498 42.04544710912623)"><path d="M-0.1413408882915974 0.5339812763035297 C-0.3303512461483479 9.275283631434043, -1.4474887656668822 38.0988289522628, -0.18981155231595048 51.56827690675855 C1.0678656610349813 65.03772486125429, -2.721395322432122 76.78029712910453, 7.404722391813993 81.35066900327801 C17.530840106060108 85.9210408774515, 51.680791921665275 79.25190278763573, 60.56689473316074 78.99050815179945 M-1.6746835839841516 -0.23128249897621567 C-2.1209456685278565 8.251920950173712, -2.6728947053446124 36.06871476854818, -1.2375080809090289 49.86914519027807 C0.19787854352655487 63.669575612007954, -3.493157410531616 77.53254247840184, 6.937636162629351 82.57130003140308 C17.36842973579032 87.61005758440433, 52.52604785163266 80.43089824344653, 61.34725335805677 80.10169050828554" stroke="#000000" stroke-width="1" fill="none"></path></g></g><g><g transform="translate(144.72265625 162.8515625) rotate(0 -14.424842204600566 48.23021890893577)"><path d="M-1.2885960556566713 -2.620202603191137 C-2.338749557485183 -2.218170617272456, -2.4030384200314683 -0.5869743806620442, -5.7936086393892765 2.0876805402338503 C-9.184178858747085 4.762335461129744, -18.304521645853917 8.49839340224862, -21.63201737180352 13.42772692218423 C-24.959513097753124 18.35706044211984, -24.553251931816337 23.55985346014301, -25.758582995086908 31.663681659847498 C-26.963914058357478 39.767509859551986, -28.38146397843957 50.81453632687529, -28.864003751426935 62.05069612041116 C-29.3465435244143 73.28685591394702, -28.776731027911104 92.89975482796629, -28.653821633011102 99.08064042106271 M3.2073561577498912 2.1290907450020313 C1.9011390356719493 2.990776337335507, -3.896396369487047 3.078114115744829, -7.054398006945848 5.4041192169487475 C-10.21239964440465 7.730124318152666, -12.791044923017424 11.47994810933868, -15.740653667002917 16.085121352225542 C-18.69026241098841 20.690294595112405, -22.032652654200792 25.03424990688761, -24.752050470858812 33.035158674269915 C-27.471448287516832 41.03606744165222, -31.95058316980799 53.43538311516245, -32.05704056695104 64.09057395651936 C-32.163497964094084 74.74576479787628, -26.33474695160985 91.59310196593404, -25.39079485371709 96.9663037224114" stroke="#000000" stroke-width="1" fill="none"></path></g></g><g><g transform="translate(140.18359375 159.140625) rotate(0 -23.380220233798013 57.27400592789053)"><path d="M0.18093577399849892 -2.0492533184587955 C-1.9304729444285234 -1.3825473842521507, -6.706976038465897 -1.12433716232578, -12.470216574519872 2.637450101226568 C-18.23345711057385 6.399237364778916, -29.772912627706926 1.528167750686407, -34.398507442325354 20.521470262855292 C-39.024102256943785 39.51477277502418, -39.03729307477673 100.82611766085029, -40.223785462230445 116.59726517423988 M-3.165366162210703 3.0099839271605013 C-5.767895648231109 3.0527840278049307, -11.067400867690644 -3.1912686700125534, -15.309133285433054 -1.1111023889482023 C-19.550865703175464 0.9690638921161487, -23.343720175971587 -3.349661199500165, -28.61576066866517 15.490981613546609 C-33.88780116135875 34.33162442659338, -44.318547530720636 95.07227479274074, -46.941376241594554 111.93275448933244" stroke="#000000" stroke-width="1" fill="none"></path></g></g><g><g transform="translate(139.84765625 162.03515625) rotate(0 -18.066363432258356 50.43833958134056)"><path d="M2.190386305004358 -1.462671134620905 C0.23155733918150223 0.1489810886482399, -7.440412877251704 4.9491428079704445, -10.392089285701513 7.326058652251959 C-13.34376569415132 9.702974496533473, -12.183896667013565 7.045601171503463, -15.519672145694495 12.798823931068181 C-18.855447624375422 18.5520466906329, -27.960069106270872 28.967712865521513, -30.406742157787086 41.845395209640266 C-32.8534152093033 54.72307755375902, -28.88031528616945 79.98259214783708, -30.199710454791784 90.0649179957807 C-31.51910562341412 100.14724384372433, -37.06904113118847 100.276233484596, -38.32311316952109 102.339350297302 M-0.06507105723023443 3.914996439367533 C-2.5018160380423073 4.9226891181369625, -9.811109668960174 1.2043102484444774, -12.520625289827585 3.164603482633829 C-15.230140910694995 5.12489671682318, -13.423044211616117 8.847808994998534, -16.3221647824347 15.676755844503642 C-19.221285353253286 22.50570269400875, -28.386221175740165 31.701167513281113, -29.915348714739086 44.13828457966447 C-31.444476253738006 56.57540164604783, -24.504346616019802 80.84626894131303, -25.49693001642823 90.29945824280381 C-26.489513416836658 99.75264754429459, -33.99320992047588 99.1912724587818, -35.87084911718964 100.85742038860917" stroke="#000000" stroke-width="1" fill="none"></path></g></g><g><g transform="translate(152.01953125 165.53515625) rotate(0 23.295277835651632 53.501457531005144)"><path d="M-2.438216660171747 0.04359684959054011 C-0.7205298401415348 0.28715944464008036, 6.493214490264654 -2.5458143932123978, 12.13696408495307 -1.108217730373144 C17.780713679641487 0.3293789324661096, 25.73613357767463 1.1458550152679283, 31.424280907958746 8.669176826626062 C37.11242823824286 16.192498637984194, 44.666009706507126 34.40558447216948, 46.26584806665778 44.03171313777566 C47.86568642680844 53.65784180338184, 43.30451442624132 57.72732742801308, 41.023311068862675 66.42594882026314 C38.74210771148403 75.1245702125132, 33.11355366135637 89.73016754165292, 32.578627922385934 96.22344149127602 C32.0437021834155 102.71671544089912, 36.64344479466478 103.48540201360981, 37.81375663504004 105.3855925180018 M1.4336557964980603 -2.4010472421348097 C2.509837254335483 -1.5428230552375317, 4.401896067112684 -0.31075169528524027, 9.282012410610914 1.9195100994408136 C14.162128754109144 4.149771894166868, 24.26095855280757 3.505562990854184, 30.71435385748744 10.980523526221514 C37.16774916216731 18.455484061588844, 45.62303256397446 37.36260394449036, 48.00238423869014 46.769273311644795 C50.38173591340582 56.17594267879923, 48.31146282717586 58.29358893906076, 44.99046390578151 67.42053972914815 C41.66946498438716 76.54749051923552, 29.069620110640923 94.53374095633626, 28.07639071032405 101.53097805216909 C27.083161310007174 108.52821514800192, 37.402411640932165 108.56070485308766, 39.031087503880265 109.4039623041451" stroke="#000000" stroke-width="1" fill="none"></path></g></g><g><g transform="translate(152.9375 154.76171875) rotate(0 27.830616028189695 58.76524283096791)"><path d="M-0.006750597804784597 -1.0581066347658634 C2.5191029009719688 -0.7129036404192448, 9.420971236377953 0.837837658574184, 12.472914467006921 1.2800181411206726 C15.52485769763589 1.7221986236671611, 15.251981617758672 0.12146770382920935, 18.30490878596902 1.5949762605130675 C21.357835954179368 3.068484817196926, 27.93341695641478 7.739173931131761, 30.790477476269007 10.121069481223822 C33.64753799612323 12.502965031315883, 30.73357966120044 3.19374768162767, 35.44727190509438 15.886349561065435 C40.16096414898832 28.5789514405032, 57.55319401596983 68.62105321312944, 59.07263093963265 86.27668075785041 C60.592067863295476 103.93230830257139, 47.547671804577114 115.98338707511624, 44.563893447071315 121.82011482939124 M-3.4549394215643408 -4.100818332284689 C-0.9025009510417785 -4.525777529329061, 6.650427606354156 -4.260393886814516, 11.176563535779714 -3.0357831273972993 C15.70269946520527 -1.8111723679800833, 20.43705415988962 0.838148906777302, 23.701876154989005 3.246846224218607 C26.96669815008839 5.655543541659911, 29.385097797165315 9.371704466889302, 30.765495506376027 11.416400777250528 C32.14589321558674 13.461097087611755, 27.948404546827078 3.499135098208983, 31.984262410253287 15.515024086385965 C36.020120273679495 27.530913074562946, 52.48251314585408 66.37143852209053, 54.98064268693328 83.51173470631242 C57.47877222801248 100.65203089053432, 48.396920664558806 112.28844058488805, 46.9730396567285 118.35680119171738" stroke="#000000" stroke-width="1" fill="none"></path></g></g><g><g transform="translate(151.671875 156.76953125) rotate(0 23.826478198965788 54.86285972461104)"><path d="M0.018198540061712176 -0.7382726810872553 C3.2365768375496073 -1.535151726255814, 12.74196723525723 -2.9432066900034743, 17.751129987090827 -2.0184556387364863 C22.760292738924427 -1.0937045874694982, 25.713096008946497 -1.514557351917028, 30.0731750510633 4.810233626514673 C34.433254093180096 11.135024604946373, 41.05506040478746 23.440460953861475, 43.91160423979163 35.930290231853725 C46.768148074795796 48.420119509845975, 47.164662180592615 66.8487443861862, 47.21243806108832 79.74920929446816 C47.26021394158403 92.64967420275012, 44.77958851084113 107.76531410391132, 44.19825952276587 113.3330796815455 M-3.416446465998888 -3.6073602323234084 C-0.31789979413151714 -2.983306272476912, 10.706363099863133 -1.5904262984295687, 16.18594426676631 0.10163857653737063 C21.665525433669487 1.79370345150431, 24.975377672960363 0.21697959457834504, 29.46104053542018 6.545029017478228 C33.94670339788 12.873078440378112, 39.51500468298793 25.917380635291337, 43.09992144152522 38.069935113936666 C46.68483820006251 50.222489592581994, 50.261271148175 67.31355188881358, 50.970541086643934 79.46035588935018 C51.67981102511287 91.60715988988679, 48.382547836750746 105.86826842024922, 47.35554107233882 110.95075911715627" stroke="#000000" stroke-width="1" fill="none"></path></g></g><g><g transform="translate(146.70703125 156.23828125) rotate(0 -18.801938786357653 59.23311985449314)"><path d="M2.5930592395365233 -1.6374483324587343 C0.9147236920893187 -1.025914364804824, -6.924869154145321 -0.6086793320874375, -12.600487365573645 2.3548451445996763 C-18.27610557700197 5.31836962128679, -27.41394544268648 12.312713164339463, -31.460650029033424 16.143698527663947 C-35.507354615380365 19.97468389098843, -35.424667086452246 7.97462715531389, -36.88071488365531 25.340757324546576 C-38.33676268085837 42.70688749377926, -39.831700426588455 103.94131231531502, -40.196936812251806 120.34047954306007 M0.5561957560479645 3.6453401912748813 C-1.0190863137940562 3.6312916387617586, -7.892875692596038 -3.9989635533591112, -13.35565822020173 -1.3774786077439787 C-18.818440747807422 1.2440063378711539, -28.43692378098766 14.525345027993122, -32.22049940958619 19.374249864965677 C-36.00407503818472 24.22315470193823, -35.44530999397238 10.987504917532206, -36.057111991792915 27.71595041409135 C-36.66891398961345 44.44439591065049, -35.90257371957103 104.09658675327898, -35.89131139650941 119.74492284432054" stroke="#000000" stroke-width="1" fill="none"></path></g></g><g><g transform="translate(345.8203125 161.3515625) rotate(0 -25.101086315957332 65.35843416949632)"><path d="M-1.4191170670092106 2.6000583983957766 C-4.183621968577306 3.201532929887374, -13.90568671002984 3.2802836912373694, -19.175582287460564 4.372870741039514 C-24.445477864891288 5.465457790841659, -28.964091322571036 5.279799423366786, -33.03849053159356 9.155580697208643 C-37.11288974061608 13.0313619710505, -40.78823257858554 20.46152722214659, -43.6219775415957 27.627558384090662 C-46.45572250460585 34.79358954603473, -48.793418095260854 44.41212887143095, -50.04096030965447 52.15176766887307 C-51.28850252404809 59.89140646631519, -52.80367944811782 64.18506303007405, -51.107230827957395 74.06539116874337 C-49.41078220779697 83.9457193074127, -40.16505342101057 101.94199148193002, -39.86226858869195 111.43373650088907 C-39.559483756373325 120.92548151984812, -47.477613256126645 127.59340413585305, -49.29052183404565 131.01586128249764 M3.0059808830916888 1.5432077188789846 C0.12245419070124708 1.2704841315249602, -16.220776201436916 -1.4978893530865511, -21.29473324254155 0.2771180267632003 C-26.368690283646185 2.0521254066129515, -24.021780549238123 7.349805643111467, -27.43776136353612 12.193251997977494 C-30.853742177834114 17.036698352843523, -37.51799928302566 22.39960385993123, -41.79061812832951 29.337796155959367 C-46.063236973633366 36.2759884519875, -52.05603559290369 45.56290015414357, -53.07347443535924 53.82240577414632 C-54.090913277814785 62.08191139414907, -49.09642496064305 69.59976125751932, -47.89525118306279 78.89482987597584 C-46.69407740548253 88.18989849443237, -45.26691640968124 100.92699869349599, -45.86643176987767 109.59281748488546 C-46.465947130074106 118.25863627627493, -51.36783708845576 127.50546044384441, -51.492343344241384 130.88974262431265" stroke="#000000" stroke-width="1" fill="none"></path></g></g><g><g transform="translate(340.96875 164.9375) rotate(0 -32.677243985533664 94.33893943533303)"><path d="M2.7313936807215216 0.7043621085584162 C-0.03124540473024018 0.7843182665606339, -11.998016951729856 -3.297370701779921, -18.12962652668357 -1.8145695425570008 C-24.261236101637284 -0.3317683833340801, -28.836353951940932 5.746797317514817, -34.05826376900077 9.601169063895941 C-39.2801735860606 13.455540810277066, -45.49264978393912 15.97506593291958, -49.461085429042576 21.31166093572974 C-53.42952107414603 26.6482559385399, -57.565529122203586 32.216268152246876, -57.868877639621495 41.620739080756906 C-58.172226157039404 51.025210009266935, -54.5016635162135 61.12671094164253, -51.281176533550024 77.73848650678993 C-48.06068955088655 94.35026207193732, -40.95397451544801 130.17051376725237, -38.54595574364066 141.2913924716413 C-36.13793697183331 152.41227117603023, -36.46314408605298 145.5808065118889, -36.83306390270591 144.46375873312354 C-37.20298371935884 143.34671095435817, -36.48964586084088 130.7183232250313, -40.765474643558264 134.58910579904915 C-45.04130342627565 138.459888373067, -59.01192222262422 158.32127191449206, -62.48803659901023 167.6884541772306 C-65.96415097539624 177.05563643996913, -61.52260826254884 187.36132412975033, -61.6221609018743 190.7921993754804 M0.7696260367333894 -1.3815808425843716 C-1.9844966703156621 -0.8475228073696296, -13.061926491012176 -1.941408065408468, -18.9218211401999 0.39924141064286234 C-24.781715789387622 2.7398908866941927, -29.483933665504058 8.826443911939858, -34.38974185839295 12.662316013723611 C-39.29555005128185 16.498188115507364, -45.151890292714036 19.629800192266703, -48.35667029753327 23.414474021345377 C-51.561450302352505 27.19914785042405, -52.44809617732962 26.621950163592892, -53.61842188730836 35.370358988195655 C-54.7887475972871 44.11876781279842, -56.91862716570496 58.78105300560594, -55.37862455740571 75.90492696896196 C-53.838621949106454 93.02880093231798, -47.274871604194246 126.60047623132665, -44.37840623751283 138.11360276833176 C-41.48194087083141 149.62672930533685, -38.01170742248495 145.86666027044257, -37.99983235731721 144.9836861909926 C-37.98795729214947 144.1007121115426, -40.60286671693126 129.00771221930782, -44.307155846506355 132.81575829163194 C-48.01144497608145 136.62380436395605, -56.26244616722067 158.97327563260993, -60.22556713476777 167.8319626249373 C-64.18868810231487 176.69064961726465, -67.15779766137402 182.7071867733697, -68.08588165178895 185.96788024559618" stroke="#000000" stroke-width="1" fill="none"></path></g></g><g><g transform="translate(354.609375 163.58203125) rotate(0 22.409345119595514 96.75686431567672)"><path d="M1.9317547179758545 2.1319914124906063 C3.0845882989466187 1.8374294939140479, 6.027198109775783 -0.41561592991153384, 9.454347334057093 0.8540685199201108 C12.881496558338403 2.1237529697517554, 18.48027015700936 4.302389623969793, 22.49465006366372 9.750098111480474 C26.50902997031808 15.197806598991155, 31.392898020893337 22.645861333856978, 33.54062677398324 33.5403194449842 C35.68835552707315 44.43477755611142, 36.28221223528187 59.18816345756253, 35.38102258220315 75.11684677824378 C34.479832929124434 91.04553009892504, 29.752582917362453 112.97779046123226, 28.13348885551095 129.11241936907172 C26.51439479365945 145.2470482769112, 23.891062475989262 161.9707888943454, 25.66645821109414 171.92462022528053 C27.44185394619902 181.87845155621568, 35.5164741533498 186.10953343138098, 38.785863266140225 188.83540735468267 C42.05525237893065 191.56128127798436, 44.84074014996489 188.25970603848498, 45.28279288783669 188.2798637650907 M-0.46410264864563944 0.8210472263395783 C0.2813275617857772 2.2250526695946853, 4.641932103882233 3.809013582617045, 8.387537637799978 4.563220492750407 C12.133143171717723 5.3174274028837685, 17.598136090685923 0.06220745856563159, 22.00953055486083 5.346288687139749 C26.42092501903574 10.630369915713867, 33.15959179664652 24.40111071561774, 34.85590442284942 36.26770786419511 C36.552217049052324 48.13430501277248, 33.95178587540984 61.364012741794184, 32.18740631207824 76.54587157860398 C30.423026748746633 91.72773041541377, 25.240048730621734 112.04006230011582, 24.269627042859792 127.35886088505387 C23.29920535509785 142.6776594699919, 23.054997224261363 158.39835607027013, 26.36487618550658 168.45866308823227 C29.6747551467518 178.51897010619442, 41.41162321830789 183.62338135694463, 44.1289008103311 187.7207029928267 C46.84617840235432 191.81802462870874, 42.94062169974049 193.05532858982684, 42.66854173764587 193.04259290352465" stroke="#000000" stroke-width="1" fill="none"></path></g></g><g><g transform="translate(352.53125 161.53515625) rotate(0 25.53894862309096 87.56016839459537)"><path d="M-1.2959698893129825 -0.16252702698111543 C0.35462149207790716 -0.15749236568808564, 5.893807818740607 -1.1621565721929072, 9.621161844581366 -0.6458189629018305 C13.348515870422125 -0.12948135361075386, 17.853254717836776 0.6409065740803879, 21.06815426573157 2.9354986287653446 C24.283053813626367 5.230090683450301, 25.841341601063807 8.687404117733237, 28.91055913195014 13.12173336520791 C31.979776662836475 17.55606261268258, 36.6548702262342 24.23990930095315, 39.48345945104957 29.54147411361337 C42.312048675864936 34.843038926273586, 44.99598089282712 41.14328703259428, 45.882094480842355 44.93112224116921 C46.76820806885759 48.718957449744146, 45.433350358655055 47.85138659651081, 44.800140979141 52.26848536506295 C44.16693159962694 56.685584133615095, 43.29607204819719 59.24501040155689, 42.082838203758 71.43371485248208 C40.869604359318814 83.62241930340727, 36.09409876093268 107.73087231492003, 37.520737912505865 125.4007120706141 C38.94737706407905 143.0705518263082, 48.22110725467404 169.6608684954544, 50.64267311319709 177.45275338664652 M3.195979385823011 -2.719066937416792 C4.522418208569288 -2.2288572768867017, 4.766736339380344 1.3037965619067353, 7.523145204037428 2.6329253406822684 C10.279554068694512 3.962054119457801, 16.036990841676793 4.380673788736265, 19.734432573765517 5.255705735236407 C23.43187430585424 6.130737681736549, 26.891226921528578 4.9017082726458705, 29.707795596569778 7.883117019683122 C32.52436427161098 10.864525766720373, 34.690732013831536 17.29759174540639, 36.63384462401271 23.144158217459918 C38.576957234193884 28.990724689513446, 39.7185904284815 38.68151593878865, 41.36647125765681 42.96251585200429 C43.014352086832126 47.243515765219925, 46.58754793370763 44.01586529289683, 46.52112959906459 48.83015769675374 C46.45471126442154 53.64445010061065, 43.14055863107244 59.52351903950174, 40.967961249798535 71.84827027514577 C38.79536386852463 84.1730215107898, 31.58456099713842 105.11347620204091, 33.485545311421156 122.77866511061788 C35.38652962570389 140.44385401919484, 49.040009133468075 169.46012642895184, 52.37386713549495 177.83940372660757" stroke="#000000" stroke-width="1" fill="none"></path></g></g><g><g transform="translate(359.55859375 163.5546875) rotate(0 21.29877563491459 91.8305625937879)"><path d="M-1.9138741873204705 -1.4208961464464664 C-0.7335648678243156 -1.5420264142254987, 4.1596041776239865 -2.231116912513971, 6.936958632618189 -0.6635948874056337 C9.71431308761239 0.9039271377027036, 12.882859788089991 5.333034016937017, 14.75025254264474 7.984236004203558 C16.617645297199488 10.635437991470098, 16.836203441768884 11.840530334164699, 18.14131515994668 15.243617036193609 C19.446426878124473 18.64670373822252, 21.540932339181502 16.270205046981573, 22.580922851711513 28.40275621637702 C23.620913364241524 40.53530738577247, 24.68722388918201 74.10987553820014, 24.381258235126733 88.03892405256629 C24.075292581071455 101.96797256693243, 21.134656542291243 96.9700154406329, 20.745128927379845 111.97704730257392 C20.355601312468448 126.98407916451494, 18.083043124030034 166.00875463709235, 22.04409254565835 178.0811152242124 C26.00514196728667 190.15347581133244, 40.46657145991921 183.246723010391, 44.51142545714974 184.41121082529426 M2.2426413260400295 3.9794492782652373 C3.128360741386811 4.082389149417479, 3.2372574180861315 0.39512010231614103, 5.090954891294241 1.4498076643049718 C6.944652364502351 2.5044952262938027, 11.196469319115083 7.765372795810302, 13.364826165288687 10.307574650198221 C15.53318301146229 12.84977650458614, 17.03473176742593 13.614671458949646, 18.101095968335866 16.703018790632488 C19.1674601692458 19.791366122315328, 19.507166833331187 17.122138813088334, 19.76301137074828 28.837658640295267 C20.018855908165374 40.5531784675022, 19.315380962143344 72.33327778791389, 19.63616319283843 86.99613775387407 C19.95694542353352 101.65899771983425, 21.59798580750823 101.67031006311376, 21.687704754918812 116.81481843605637 C21.777423702329394 131.95932680899898, 17.01809823140502 167.17384273504217, 20.17447687730193 177.8631879915297 C23.330855523198842 188.55253324801726, 37.23414759581288 179.90104540005328, 40.625976630300286 180.95088997498155" stroke="#000000" stroke-width="1" fill="none"></path></g></g><g><g transform="translate(341.33984375 156.125) rotate(0 -41.10910011425614 98.15714324297426)"><path d="M-2.2494920156896114 -1.2290893532335758 C-9.466082110255957 -1.2490233319501083, -31.80679164553682 0.9617803754905854, -40.91904493793845 2.384925772994756 C-50.031298230340084 3.808071170498927, -53.50939052725832 3.9085566304624084, -56.9230117700994 7.309783031791449 C-60.33663301294048 10.71100943312049, -59.187760740766926 14.859615773210923, -61.40077239498496 22.792284180969 C-63.613784049203 30.724952588727074, -69.50471966887513 44.481160603215294, -70.20108169540762 54.90579347833991 C-70.89744372194012 65.33042635346452, -68.42660031939546 72.4901751699547, -65.57894455417991 85.34008143171668 C-62.731288788964356 98.18998769347867, -55.01908465847373 119.28320081457495, -53.11514710411429 132.0052310489118 C-51.211209549754855 144.72726128324865, -52.23262027725577 152.50651846155526, -54.15531922802329 161.6722628377378 C-56.078018178790806 170.83800721392035, -63.91335789188743 182.7804975770414, -64.6513408087194 186.99969730600714 C-65.38932372555136 191.21889703497288, -59.72606801018119 189.15688783551255, -58.58321672901511 186.98746121153235 C-57.44036544784904 184.81803458755215, -54.136823223282896 172.2037149531146, -57.79423312172294 173.98313756212593 C-61.45164302016298 175.76256017113727, -76.4930763306717 193.67910881266, -80.52767611965537 197.66399686560035 M1.7248309622704987 4.27537975922227 C-5.8424151171743866 4.727066375166179, -32.909322476933404 -2.1039819688101606, -41.73051758185029 -1.331068495362997 C-50.55171268676718 -0.5581550219158332, -48.04351226861279 4.544646375725667, -51.202339667230845 8.912860599905253 C-54.3611670658489 13.28107482408484, -58.20633380467693 17.18591443990668, -60.68348197355866 24.87821684971452 C-63.1606301424404 32.57051925952236, -65.86177959814667 45.4013147367537, -66.06522868052124 55.066675058752296 C-66.26867776289582 64.73203538075089, -63.053086953709524 69.38051686262091, -61.9041764678061 82.8703787817061 C-60.75526598190268 96.36024070079128, -60.21523796771963 122.83347687219579, -59.171765765100716 136.0058465732634 C-58.1282935624818 149.178216274331, -55.283709528197846 153.75061957016587, -55.6433432520926 161.90459698811173 C-56.00297697598735 170.0585744060576, -61.10874414816499 180.74385413621863, -61.329568108469246 184.92971108093857 C-61.550392068773505 189.11556802565852, -57.821599965641894 188.69386579170822, -56.96828701391816 187.01973865643143 C-56.11497406219442 185.34561152115464, -51.71389970198273 173.46501163298885, -56.20969039812684 174.8849482692778 C-60.705481094270944 176.30488490556675, -79.58770878687501 190.75581542308132, -83.94303119078279 195.5393584741652" stroke="#000000" stroke-width="1" fill="none"></path></g></g><g><g transform="translate(342.33203125 156.6875) rotate(0 -34.60092867749336 101.12263688873412)"><path d="M-1.8088596321642396 -0.2633042000234127 C-3.662350739787022 0.2316324489812056, -7.840507807085912 -1.1394652190307777, -13.281258080154657 0.1763691045343876 C-18.7220083532234 1.4922034280995529, -26.449285751332837 3.2461172041793667, -34.453361270576714 7.6317017413675785 C-42.45743678982059 12.01728627855579, -55.840108932803076 22.013553621123233, -61.30571119561792 26.48987632766366 C-66.77131345843276 30.966199034204084, -66.47698288535078 27.195729773988326, -67.24697484746575 34.489637980610134 C-68.01696680958072 41.78354618723194, -66.74617876783013 61.824359529962145, -65.92566296830773 70.2533255673945 C-65.10514716878534 78.68229160482684, -67.44269169742863 72.60511508956552, -62.323880050331354 85.06343420520425 C-57.20506840323409 97.52175332084298, -38.92675116633376 126.31723636165262, -35.212793085724115 145.0032402612269 C-31.498835005114476 163.68924416080117, -38.920956458399694 188.1973851300776, -40.040131566673516 197.17945760264993 C-41.15930667494734 206.16153007522226, -41.91756831581394 199.255400262028, -41.92784373536706 198.89567509666085 M2.404663782566786 -2.874551718682051 C0.5584348603586358 -1.666662919968367, -7.856032917847236 2.727913221071164, -14.410231251269579 3.6724262161552907 C-20.96442958469192 4.616939211239417, -29.31793692385157 -1.4412981141110262, -36.92052621796727 2.79252625182271 C-44.523115512082974 7.026350617756446, -54.4116047950089 23.81678908382853, -60.025767015963794 29.07537241175771 C-65.63992923691869 34.333955739686886, -68.95129597142338 27.682085296660663, -70.60549954369664 34.34402621939778 C-72.2597031159699 41.00596714213491, -71.74541051819921 61.13520413115621, -69.95098844960332 69.04701794818044 C-68.15656638100742 76.95883176520466, -65.34294745877385 69.199259194086, -59.838967132121326 81.81490912154317 C-54.3349868054688 94.43055904900034, -39.61001519158482 124.79947346722088, -36.92710648968816 144.7409175129235 C-34.24419778779149 164.6823615586261, -43.2269669067363 192.39370014066498, -43.741514920741324 201.46357339575886 C-44.256062934746346 210.53344665085274, -40.929025585999085 199.97484448785582, -40.014394573718306 199.16015704348683" stroke="#000000" stroke-width="1" fill="none"></path></g></g><g><g transform="translate(105.19921875 213.21875) rotate(0 -7.752301337639096 47.557526805251825)"><path d="M-0.2808000944554805 -2.501359460502863 C-0.5772882603108882 1.2599229914446672, 0.2859420237441861 5.500527113924424, -2.6357991836965082 22.18682253584266 C-5.557540391137202 38.8731179577609, -15.087975420802831 85.09393117651344, -17.811247339099644 97.61641307100653 M-3.8777586449682717 2.312448736578226 C-3.167505945116282 5.235393083641926, 5.440084172338249 2.53618189786871, 2.939682117551566 17.684715081602334 C0.4392800627648836 32.83324826533596, -15.34256631270051 80.77698838368059, -18.880170973688365 93.20364783897996" stroke="#000000" stroke-width="1" fill="none"></path></g></g><g><g transform="translate(158.6875 155.08984375) rotate(0 22.869788072705262 98.17274056524633)"><path d="M2.6358609534800053 -1.9559145666658877 C4.767990392198165 -0.9749709106981753, 8.273245670149723 -2.4651572443544874, 12.36826497092843 4.683255436271429 C16.463284271707135 11.831668116897344, 24.251428597917158 28.040969850867988, 27.205976758152246 40.934561517089605 C30.160524918387335 53.82815318331122, 28.91296291525165 70.64368940417965, 30.09555393233895 82.04480543360114 C31.278144949426252 93.44592146302263, 34.60909373934071 96.22873546505967, 34.30152286067605 109.34125769361853 C33.993951982011396 122.45377992217739, 27.897185979038476 147.85306604132057, 28.250128660351038 160.7199388049543 C28.6030713416636 173.58681156858802, 34.52744308486581 180.37233705744146, 36.41917894855142 186.5424942754209 C38.31091481223703 192.71265149340033, 38.150849757343536 196.05288152123492, 39.60054384246469 197.7408821128309 C41.05023792758584 199.42888270442685, 44.399119863659145 196.91676160718004, 45.117343459278345 196.67049782499672 M0.6222326861321923 3.153992287069559 C2.605027398516734 4.718361092954874, 6.951570661316315 1.46715802485744, 11.242001634687185 8.265751735121011 C15.532432608058055 15.064345445384582, 23.22845539356271 31.434755790779988, 26.36481852635741 43.94555454865098 C29.50118165915211 56.456353306521976, 28.034068407466012 72.08690408363938, 30.06018043145537 83.33054428234696 C32.086292455444735 94.57418448105454, 38.291552606672056 98.68072041645647, 38.52149067029357 111.40739574089646 C38.75142873391509 124.13407106533646, 31.39610818649332 147.58027542725205, 31.4398088131845 159.69059622898698 C31.48350943987568 171.8009170307219, 36.51837805057565 177.75406683738035, 38.78369443044066 184.06932055130602 C41.049010810305674 190.3845742652317, 44.40239051923155 196.04366528486213, 45.03170709237456 197.58211851254106 C45.66102366551757 199.12057174022, 42.32217391277353 193.7520997410516, 42.559593869298695 193.30003991737962" stroke="#000000" stroke-width="1" fill="none"></path></g></g><g><g transform="translate(128.140625 168.2890625) rotate(0 -12.417922300715418 85.29977056825163)"><path d="M0.5364779569208622 1.9274585269391533 C0.09326381857196492 2.3833592039843396, 1.3879826483627162 1.6013045333325855, -0.4010086201131342 2.386336018890142 C-2.189999888588985 3.1713675044476983, -7.80426212772727 3.8466866436103984, -10.19746965393424 6.637647440284491 C-12.59067718014121 9.428608236958583, -13.115588782479366 14.453464271873234, -14.760253777354956 19.132100798934697 C-16.404918772230545 23.81073732599616, -18.54084594870607 22.503465217600265, -20.06545962318778 34.709466602653265 C-21.59007329766949 46.915467987706265, -23.863814550886552 73.58020998860398, -23.907935824245214 92.36810910925269 C-23.952057097603877 111.15600822990139, -20.485463013499977 134.74000555103024, -20.33018726333976 147.43686132654548 C-20.17491151317954 160.13371710206073, -23.007410802692174 164.39475782935818, -22.97628132328391 168.54924376234413 C-22.945151843875646 172.70372969533008, -20.252371134608985 172.2025967064003, -20.143410386890174 172.36377692446112 M-2.616815365701914 0.5054822029173378 C-3.4609049103160703 0.2513137163221841, 0.09077720746397966 -2.895866422901551, -1.580145477205515 -1.3288926874101161 C-3.2510681618750095 0.23808104808131847, -10.716823839098216 6.140317056725422, -12.642351473718882 9.907324615865946 C-14.567879108339548 13.67433217500647, -12.695250640461841 16.96925093308091, -13.133311284929514 21.273152667433024 C-13.571371929397186 25.577054401785137, -13.962922792981068 24.152115219185752, -15.270715340524912 35.73073502197862 C-16.578507888068756 47.30935482477148, -20.412921351343392 71.45917846972745, -20.980066570192577 90.74487148419023 C-21.54721178904176 110.030564498653, -17.971244036902988 138.68422486439346, -18.673586653620006 151.44489310875534 C-19.375929270337025 164.20556135311722, -24.37026877934734 164.19736670787137, -25.1941222704947 167.3088809503615 C-26.017975761642056 170.42039519285163, -24.27919642503063 170.01233609651527, -23.61670760050416 170.11397856369615" stroke="#000000" stroke-width="1" fill="none"></path></g></g><g><g transform="translate(321.50390625 173.01953125) rotate(0 0.24977148364547475 15.680227703005102)"><path d="M1.5571067906916136 -0.09810652509331685 C1.9308146494130287 4.56136369133989, 1.0981358148157594 25.684359679867825, 0.2944584704935549 30.249360444396736 M-1.042130879312754 -2.6196753059327604 C-0.6933302058279518 2.331723020623128, -1.5302878178656103 28.727186517467103, -0.9121614302694798 33.98013071194291" stroke="#000000" stroke-width="1" fill="none"></path></g></g><g><g transform="translate(312.72265625 174.0390625) rotate(0 -2.035120777487805 17.883730453401824)"><path d="M-0.18309024795889872 -1.1493592239916324 C-1.0655993285278482 4.89647929891944, -4.711794907102982 30.356372565279408, -4.8237888000905516 37.540830828994515 M-3.727006310373545 -4.241608041375875 C-3.722630075365305 1.9786320413649081, 0.3545132647454743 33.024802528768774, 0.7535472451150422 40.00906894817948" stroke="#000000" stroke-width="1" fill="none"></path></g></g><g><g transform="translate(330.6328125 170.0625) rotate(0 -0.5281759043037937 21.112883398681873)"><path d="M-2.1464865185320376 -1.8507360599935052 C-2.121858221044143 5.218009894837936, -1.3681605316698549 36.70396534775694, -0.6584769465029239 44.07650285735726 M1.8837537293136117 3.3162676973640917 C1.6010243595143157 9.469722698877256, -2.920181496491035 33.1533057979246, -2.9401055379211902 40.22276650622487" stroke="#000000" stroke-width="1" fill="none"></path></g></g><g><g transform="translate(336.36328125 168.9609375) rotate(0 1.7508338608681697 22.62174352839591)"><path d="M-1.8748165823519227 2.3287532903254027 C-0.765526165316502 5.444677132119734, 4.708539210011561 9.859227301428714, 5.3172647975385186 16.238260731846093 C5.925990385065476 22.617294162263473, 2.1631505988538264 36.265083314726745, 1.77753694280982 40.60295387282967 M2.3029016308486465 1.1246226949989797 C3.3819322097798192 3.6212347399691747, 4.813650039484104 4.7574101038277155, 4.40929779574275 11.923117048293353 C4.004945552001397 19.08882399275899, -0.0814614657064281 39.84944826001922, -0.12321183159947413 44.1188643617928" stroke="#000000" stroke-width="1" fill="none"></path></g></g><g><g transform="translate(345.3359375 171.76171875) rotate(0 8.278470474027415 18.704317762225855)"><path d="M2.7030998088419436 1.3308726094663141 C3.7105196731785934 1.652956503878037, 2.646574816852808 0.10191659356156971, 4.492356548458337 -0.11017436757683763 C6.338138280063867 -0.32226532871524494, 12.191278435538212 -3.3082735516130923, 13.777790198475122 0.05832684263587007 C15.364301961412032 3.4249272368848325, 15.317884876082342 14.133092954009769, 14.011427126079798 20.089427997916935 C12.704969376077255 26.045763041824102, 6.279592380672693 32.65706265990933, 5.939043698459864 35.796337106078866 C5.598495016247035 38.9356115522484, 10.766968983163437 38.09520294889808, 11.96813503280282 38.92507467493415 M0.725972634404898 -0.414964641183615 C1.4421395391722522 0.595507883777221, -0.16426987543702198 3.2311084045469762, 1.9024304257333275 3.6459555734694007 C3.969130726903677 4.060802742391825, 10.82251984541615 0.22582266623775138, 13.126174441426993 2.074118372350931 C15.429829037437838 3.9224140784641106, 16.129750087509553 10.185380423615376, 15.724358001798391 14.735729810148477 C15.31896591608723 19.286079196681577, 12.141371046155692 25.668357523034015, 10.693821927160025 29.37621469154954 C9.246272808164358 33.08407186006506, 7.6479735416670644 35.35957981084783, 7.039063287824392 36.982872821241614" stroke="#000000" stroke-width="1" fill="none"></path></g></g><g><g transform="translate(342.19921875 169.30078125) rotate(0 6.529373480230561 18.045560855418444)"><path d="M2.5643108867108824 -0.5491875790059568 C3.263236262649298 0.7349260109166302, 3.8518267335991068 0.8177106874684483, 5.515592553466559 6.31189838424325 C7.1793583733340105 11.806086081018051, 12.386292706181605 27.222199258953335, 12.546905805915593 32.41593860164285 C12.70751890564958 37.60967794433236, 7.716366436332464 35.99234716271361, 6.479271151870489 37.47433444038033 M0.5118411545455457 -3.315628931969404 C0.769362842688958 -1.4022622279822825, 1.670875492542982 4.893687000622353, 3.5850436548888682 10.06601514056325 C5.499211817234754 15.238343280504147, 11.278904958218337 22.828217323968808, 11.996850128620864 27.718339907675983 C12.71479529902339 32.60846249138316, 9.601049464990695 38.19349019085368, 7.8927146773040295 39.406750642806294" stroke="#000000" stroke-width="1" fill="none"></path></g></g><g><g transform="translate(359.09375 170.359375) rotate(0 7.947340059884766 17.091222276902215)"><path d="M2.0113257981836794 1.507604124397039 C2.31429035042723 1.4550783894956107, 3.4264850713312622 -2.8034446852902573, 4.207126269489526 -2.1344079710543156 C4.9877674676477906 -1.4653712568183739, 4.80180468733112 1.9743486188352102, 6.695172987133264 5.521824409812688 C8.588541286935408 9.069300200790167, 14.941033961127202 14.124426112820707, 15.567336068302392 19.150446774810554 C16.193638175477584 24.1764674368004, 10.89047009324034 32.40088122114539, 10.452985630184411 35.677948381751776 M-0.3413358391821384 -0.1422931610047815 C-0.48655921354889875 0.25910903111100225, 2.0529897255202134 0.10938433622320512, 2.815262638181448 0.3362451566755773 C3.5775355508426823 0.5631059771279495, 2.1581688303252062 -2.412104913642009, 4.232301636785269 1.2188717617094516 C6.306434443245331 4.849848437060912, 13.482567753245432 16.26210545197129, 15.260059476941823 22.12210520878434 C17.037551200638212 27.98210496559739, 16.063183564593395 33.759523571083946, 14.897251978963613 36.37887030258775" stroke="#000000" stroke-width="1" fill="none"></path></g></g><g><g transform="translate(339.70703125 167.953125) rotate(0 2.5355657344400697 19.430663624852883)"><path d="M0.6181071303784846 -0.15070950016379348 C2.31416131084164 4.719828345129887, 6.979413463920355 20.6101554411153, 7.50953009352088 27.562300596386194 C8.039646723121404 34.51444575165709, 4.819417868306239 39.354035593817635, 3.7988069079816342 41.562161431461575 M-2.4908732123672963 -2.7008341817557815 C-0.9716541365285714 2.749035004327694, 4.287757072895766 24.30450429315368, 5.001024966686964 30.871323196440933 C5.714292860478163 37.43814209972818, 2.546187946448723 34.56581094299753, 1.788734150379896 36.70007923796773" stroke="#000000" stroke-width="1" fill="none"></path></g></g><g><g transform="translate(329.42578125 167.109375) rotate(0 -5.788863791078313 19.002543518096218)"><path d="M1.7479460738599295 -0.0950687073171137 C0.47838746135433463 0.7334647434453171, -5.284798699369034 -3.1729651592671866, -7.493602154403925 3.2843110181391237 C-9.702405609438816 9.741587195545435, -10.726593611389399 32.203039830674726, -11.50487465634942 38.64858835712075 M-0.7476931281387809 -2.6149883870780473 C-1.2022907840708894 -1.2861201775570714, -0.4401338064173852 -1.1005841569602497, -2.53646389439702 6.10525981143117 C-4.632793982376654 13.311103779822588, -11.756564586510262 35.5407664381961, -13.325673656016589 40.620075423270464" stroke="#000000" stroke-width="1" fill="none"></path></g></g><g><g transform="translate(322.78125 167.1171875) rotate(0 -8.555856057256449 18.286619169265037)"><path d="M0.4968611977994444 -0.8131210230290888 C-0.5229296026130517 0.8924960153798263, -3.4459792988995717 1.7142524021367223, -6.413340137153864 8.222301945835351 C-9.380700975408157 14.73035148953398, -14.724640208234389 32.83521665111184, -17.307303831726312 38.23517623916268 M-2.6779383654892444 -3.72284053131938 C-4.022838450620572 -2.5408394889533525, -6.035285659978788 -2.613103252698978, -8.523724817782641 4.723383314162493 C-11.012163975586494 12.059869881023964, -15.30945478235682 33.837575854013366, -17.608573312312366 40.296078869849445" stroke="#000000" stroke-width="1" fill="none"></path></g></g><g><g transform="translate(139.84375 157.66796875) rotate(0 -22.00118883938194 88.30120859839914)"><path d="M0.6348291732370854 0.6390213273465633 C-0.49653117482860876 0.6833733898897965, -3.508069720119238 -2.3039025840659932, -6.718695154041052 -0.8954994656145572 C-9.929320587962867 0.5129036528368789, -14.903119824578365 6.802947777758041, -18.6289234302938 9.08944003805518 C-22.354727036009233 11.37593229835232, -26.3657625498871 11.204339816421271, -29.073516788333656 12.82345409616828 C-31.78127102678021 14.44256837591529, -32.511159028857946 13.323898206402855, -34.87544886097312 18.804125716537236 C-37.2397386930883 24.284353226671616, -41.88207456097007 33.53707053884863, -43.25925578102469 45.70481915697455 C-44.636437001079315 57.87256777510047, -45.59119632070263 79.3351898215711, -43.13853618130088 91.81061742529273 C-40.68587604189913 104.28604502901436, -30.305117732534804 107.51961510404945, -28.54329494461417 120.55738477930427 C-26.78147215669354 133.5951544545591, -31.971942637612425 160.50290335242946, -32.56759945377708 170.03723547682165 C-33.16325626994173 179.57156760121384, -33.03599883541465 176.67599694952366, -32.11723584160209 177.7633775256574 C-31.198472847789528 178.85075810179114, -27.19903600042065 176.8622601531446, -27.05502149090171 176.56151893362403 M-2.4650734890997414 -1.482392333596945 C-3.8492225429912414 -0.9749925218522552, -5.404798827717702 0.925344530493021, -8.197522558122873 1.9868781007826328 C-10.990246288528045 3.0484116710722446, -15.675652946382764 3.9366251577436926, -19.221415871530773 4.886809088140726 C-22.767178796678785 5.836993018537759, -26.27828659589092 5.356115166097879, -29.472100109010935 7.687981683164835 C-32.66591362213095 10.01984820023179, -36.48325478926301 12.849447693576415, -38.384296950250864 18.87800819054246 C-40.28533911123872 24.906568687508504, -40.45611253951987 32.14980796153347, -40.87835307493806 43.8593446649611 C-41.30059361035625 55.56888136838873, -42.489732568015654 76.57199577465654, -40.91774016276002 89.13522841110826 C-39.345747757504384 101.69846104755997, -32.25828967943787 106.27656614596644, -31.446398643404244 119.23874048367142 C-30.634507607370615 132.2009148213764, -36.17486492847403 157.26766783848404, -36.04639394655824 166.90827443733812 C-35.91792296464245 176.5488810361922, -31.089492494811616 175.23023086523017, -30.675572751909495 177.08238007679583 C-30.261653009007375 178.9345292883615, -34.2003575998048 177.13400294755894, -33.56287548914552 178.02116970673202" stroke="#000000" stroke-width="1" fill="none"></path></g></g><g><g transform="translate(146.19921875 160.89453125) rotate(0 -30.94065982758997 89.75404010266666)"><path d="M1.6160085059702398 -1.653408310562372 C0.8306005097925665 -1.515734511365493, -3.038843105485042 -2.836169868459304, -4.410059156268835 -1.7631885029375551 C-5.781275207052627 -0.6902071374158063, -4.760407899071772 2.7009549481173356, -6.611287798732519 4.784479882568121 C-8.462167698393266 6.868004817018907, -10.016590053091448 2.671260764449835, -15.515338554233313 10.737961103767157 C-21.014087055375178 18.804661443084477, -35.36382674202323 38.53183579668403, -39.603778805583715 53.18468191847205 C-43.8437308691442 67.83752804026008, -40.18863326534629 86.88599221929907, -40.955050935596226 98.6550378344953 C-41.72146860584616 110.42408344969154, -44.13064992253979 116.89758908177416, -44.202284827083346 123.79895560964943 C-44.273919731626904 130.7003221375247, -41.00321492974957 140.73764689192177, -41.38486036285758 140.0632370017469 C-41.76650579596559 139.38882711157203, -43.70169775312146 118.79515490755439, -46.49215742573142 119.75249626860023 C-49.28261709834138 120.70983762964606, -57.48058244213462 135.92173259481785, -58.12761839851737 145.8072851680219 C-58.77465435490012 155.69283774122596, -49.89864992126822 173.35571816985808, -50.37437316402793 179.06581170782448 C-50.850096406787635 184.77590524579088, -59.31624361500144 179.40615297382075, -60.9819578550756 180.06784639582037 M-0.9512539471685888 3.6207162250578406 C-2.1798101462423802 4.284821359068156, -5.780346961567799 1.2578598274290558, -6.904600232988596 0.7244971574842927 C-8.028853504409392 0.19113448753952944, -6.5196243386964 -1.609135505606731, -7.696773575693369 0.42054020538926107 C-8.873922812690337 2.450215916385253, -9.326215100834766 4.187247813294331, -13.967495654970406 12.902551423460245 C-18.608776209106047 21.61785503362616, -31.47299196933707 38.61714813048641, -35.544456900507214 52.71236186638475 C-39.61592183167736 66.80757560228308, -37.17030162389079 84.825990250657, -38.39628524199128 97.47383383885025 C-39.622268860091765 110.12167742704351, -41.92567824418346 121.59214168682693, -42.900358609110114 128.59942339554428 C-43.87503897403677 135.60670510426164, -43.10774975990256 140.20352724368374, -44.24436743155122 139.51752409115434 C-45.380985103199876 138.83152093862495, -46.51123785073558 123.51176964258154, -49.72006463900208 124.4834044803679 C-52.92889142726858 125.45503931815425, -63.69070794637004 137.14018431320784, -63.497328161150214 145.34733311787247 C-63.30394837593039 153.5544819225371, -49.66908485149344 168.2645346019169, -48.559785927683116 173.72629730835558 C-47.450487003872794 179.18806001479427, -54.82491837079326 176.7803494800627, -56.84153461828828 178.11790935650467" stroke="#000000" stroke-width="1" fill="none"></path></g></g><g><g transform="translate(163.63671875 156.97265625) rotate(0 25.528456657081847 102.80082371607423)"><path d="M-0.5172486282885074 2.2914638854563236 C1.8626393737892313 2.5715923883020877, 9.996035244315863 -2.5355862123270825, 16.49852736219764 2.2525818921625618 C23.001019480079414 7.040749996652206, 32.70544475937883 21.81161018386483, 38.49770407900214 31.02047251239419 C44.28996339862545 40.22933484092355, 48.644430130968495 51.71263323004047, 51.25208327993751 57.505755863338706 C53.85973642890652 63.298878496636945, 57.063308741897345 58.918728043387325, 54.14362297281623 65.77920831218361 C51.22393720373512 72.6396885809799, 36.81200734997789 86.43530640775958, 33.73396866545081 98.66863747611642 C30.65592998092373 110.90196854447325, 35.13029646302263 127.35358739867806, 35.67539086565375 139.1791947223246 C36.220485268284875 151.00480204597116, 37.41523825551073 165.5831494666636, 37.004535081237556 169.62228141799568 C36.59383190696438 173.66141336932776, 32.50803552692135 157.451149187237, 33.21117182001471 163.41398643031715 C33.91430811310808 169.3768236733973, 39.957703576733664 197.9778420942525, 41.223352839797734 205.39930487647652 M-4.242564954310656 1.0670904703438282 C-2.431680839409431 1.627247742364804, 6.198197492410738 -0.54837509120504, 14.289406466931105 4.977846481353045 C22.38061544145147 10.50406805391113, 38.22680577481787 26.30918644145131, 44.30468889281154 34.224419905692336 C50.38257201080521 42.13965336993336, 49.494626754571996 47.02051786139607, 50.75670517489314 52.469247266799215 C52.01878359521429 57.91797667220236, 54.22901557490229 59.65993069206676, 51.877159414738415 66.91679633811117 C49.52530325457454 74.17366198415559, 40.36506175403794 84.27111145690084, 36.64556821390987 96.01044114306569 C32.9260746737818 107.74977082923054, 29.755823560208082 125.39876230433583, 29.560198173969983 137.3527744551003 C29.364572787731884 149.30678660586477, 35.38644259497523 162.62781975780925, 35.471815896481274 167.73451404765248 C35.55718919798732 172.84120833749571, 28.98765941823522 162.0160067990919, 30.07243798300624 167.99294019415976 C31.157216547777256 173.9698735892276, 40.27948542321722 196.44268703495462, 41.98048728510737 203.59611441805959" stroke="#000000" stroke-width="1" fill="none"></path></g></g><g><g transform="translate(489.96484375 185.86328125) rotate(0 -17.918749089493758 38.40784095668434)"><path d="M0.025536856800317587 0.6896146081387995 C-1.775569381564856 1.4488460245231782, -4.896518530696632 -1.6857087987164663, -10.462469282001258 2.696069767326116 C-16.028420033305885 7.077848333368698, -30.064527009179198 14.298771161089343, -33.370167651027444 26.980286004394294 C-36.675808292875686 39.66180084769925, -30.129783056428035 69.99624982898433, -30.296313133090734 78.78515882715583 M-3.405124491602183 -1.4043341289460658 C-5.4306500917176415 -1.2187804272274174, -6.299041724751392 -6.082809016158183, -11.621957105547189 -1.0206606183946132 C-16.944872486342987 4.041487779368957, -32.515789805005 15.445687187264364, -35.342616776376964 28.968556257635356 C-38.16944374774893 42.49142532800635, -29.426283561935026 71.63368183429043, -28.582918933779 80.11655380383134" stroke="#000000" stroke-width="1" fill="none"></path></g></g><g><g transform="translate(124.15625 247.65234375) rotate(0 30.989088326534272 10.26448647158611)"><path d="M0.009154140204191252 0.2795017965137958 C1.6643792661527794 4.798561669141054, 2.769061052054167 22.596694748351972, 9.980438267439604 27.817638827115296 C17.191815482825042 33.03858290587862, 34.45896853134036 38.83534091388186, 43.27741743251681 31.60516626909375 C52.095866333693266 24.374991624305643, 59.835003991176684 -7.641352326919635, 62.89113167449832 -15.56340904161334 M-1.4451786655280738 -0.6193637056555599 C0.5729617221063625 4.042293004551903, 4.810459001054986 23.847090966959172, 12.183783050468191 29.353660400072112 C19.557107099881396 34.86022983318505, 34.25483691959642 39.748310422062254, 42.794765630951154 32.420052893022074 C51.33469434230589 25.0917953639819, 59.98613336701256 -6.565251353125399, 63.423355318596585 -14.615884774168954" stroke="#000000" stroke-width="1" fill="none"></path></g></g><g><g transform="translate(307.02734375 259.484375) rotate(0 34.06248687580228 11.57580513283611)"><path d="M-0.5014001123607158 0.915176235884428 C2.5613100695113338 5.52583933994174, 11.008985385050376 23.8086519750456, 18.73067612722516 28.43218103572726 C26.452366869399942 33.05571009640892, 37.512794717897975 34.97789015298088, 45.82874434068799 28.656350599974395 C54.144693963478005 22.334811046967904, 64.77385579024752 -3.3089718786378706, 68.62637386396527 -9.497056282311679 M1.436226099310443 0.35003981438465415 C4.281210884728159 5.018090671272947, 9.794566265124207 25.093314018916956, 17.610473911641165 29.491032580705358 C25.426381558158123 33.88875114249376, 39.864314432221775 33.08602027731327, 48.331671978412196 26.736351185115055 C56.79902952460262 20.386682092916843, 64.66308743872058 -2.858068435120707, 68.41461918878369 -8.606981972483918" stroke="#000000" stroke-width="1" fill="none"></path></g></g><g><g transform="translate(492.5390625 183.078125) rotate(0 7.63228730272175 -17.97957212595344)"><path d="M-2.799888990074396 2.5585601188242437 C-5.789691946655512 0.009600283453862435, -13.541660862912734 -10.302789702266455, -15.757785484939813 -14.685799779742956 C-17.97391010696689 -19.068809857219456, -18.355598312367995 -19.59733423218131, -16.096636722236873 -23.739500346034767 C-13.83767513210575 -27.881666459888223, -9.083482040713232 -37.78528518502911, -2.2040159441530704 -39.53879646286369 C4.67545015240709 -41.29230774069826, 19.595187626530727 -38.93987661028902, 25.18015985712409 -34.26056801304221 C30.76513208771745 -29.581259415795405, 30.32890515550971 -17.402832140773537, 31.30581743940711 -11.46294487938285 C32.28272972330451 -5.523057617992163, 33.541555637369555 -1.2239483259618282, 31.04163356050849 1.3787555553019049 C28.541711483647425 3.981459436565638, 21.030591871589422 4.152186618000269, 16.30628497824073 4.153278408199549 C11.581978084892036 4.154370198398829, 5.326799990981817 1.7408803083002573, 2.695792200416326 1.3853062964975837 M0.8756470589339731 1.4791818018257619 C-2.516643061190844 -0.6209827848772207, -13.821182453980049 -7.062845445921024, -16.988525318652393 -10.928312919586897 C-20.155868183324735 -14.79378039325277, -20.446400262067716 -17.15158152068655, -18.128410129100086 -21.713623040169477 C-15.810419996132454 -26.275664559652405, -9.914345476975045 -36.47421697899699, -3.0805845208466054 -38.30056203648448 C3.753176435281834 -40.126907093971965, 16.755227669527134 -36.70029446408152, 22.874155607670545 -32.6716933850944 C28.993083545813956 -28.643092306107278, 31.89201807066798 -19.49930453583598, 33.63298310801387 -14.12895556256175 C35.373948145359755 -8.75860658928752, 35.38924024467667 -3.1869356708228587, 33.31994583174586 -0.4495995454490185 C31.250651418815057 2.2877365799248217, 26.735134751449028 2.408206987728675, 21.21721663042903 2.2950611896812916 C15.69929850940903 2.181915391633908, 3.312733817547559 -1.0873775367438794, 0.2124371056258676 -1.1284743337333203" stroke="#000000" stroke-width="1" fill="none"></path></g></g><g><g transform="translate(492.06640625 178.37109375) rotate(0 9.667401741088668 -10.073552585158353)"><path d="M-2.4077120922505855 -0.27040502801537514 C-3.491752392301957 -2.5978277660906315, -6.281971866140763 -9.678403605769077, -7.148451080173254 -13.790684793144464 C-8.014930294205746 -17.902965980519852, -10.758214495827755 -22.107735393196343, -7.606587376445532 -24.944092152267693 C-4.454960257063309 -27.780448911339043, 6.552621477593978 -30.411780061076083, 11.76131163612008 -30.808825347572565 C16.970001794646183 -31.205870634069047, 21.025609296311934 -32.9667827265958, 23.645553574711084 -27.326363871246578 C26.265497853110233 -21.685945015897357, 29.19649928584695 -2.528285381942988, 27.48097730651498 3.0336877845227717 C25.76545532718301 8.595660950988531, 18.53880218838652 7.728508522361516, 13.352421698719263 6.045475127547979 C8.166041209052008 4.362441732734442, -0.37501292054851865 -3.81847946420312, -3.637305631488562 -7.064512584358454 C-6.899598342428606 -10.310545704513787, -6.042398840437333 -12.840025708824395, -6.221334566920996 -13.430723593384027 M1.4807199870049956 -2.88550728186965 C0.16145028695464148 -4.797964037507772, -7.10580588872234 -7.237174307753643, -8.9093468798697 -10.47183194026351 C-10.71288787101706 -13.706489572773377, -12.818769992738963 -19.342126794109745, -9.34052595987916 -22.293453076928856 C-5.8622819270193585 -25.244779359747966, 6.8453079869846505 -27.314618597278994, 11.960117317289114 -28.17978963717818 C17.07492664759358 -29.04496067707737, 18.266628245760998 -32.24774053757389, 21.34833002194762 -27.484479316323995 C24.430031798134245 -22.721218095074097, 31.54867222890258 -6.014817810306947, 30.450327974408864 0.3997776903212067 C29.35198371991515 6.81437319094936, 20.745285965055228 12.453558764209351, 14.758264494985342 11.003093687444926 C8.771243024915456 9.5526286106805, -2.621455350468556 -3.681014134337505, -5.471800846010447 -8.30301277026534 C-8.322146341552337 -12.925011406193175, -2.773460897356271 -16.416575242926676, -2.3438084782660003 -16.72889812812209" stroke="#000000" stroke-width="1" fill="none"></path></g></g><g><g transform="translate(504.88671875 164.88671875) rotate(0 -7.363373116801995 2.7940986055910457)"><path d="M-1.8727546192705629 1.0617731906473638 C-1.648711242030064 0.5742193001012008, 2.5190987927218274 -1.2829577746490637, 1.3372794888913626 -3.89429172500968 C0.15546018506089787 -6.505625675370296, -4.724401543289423 -12.279474248737097, -8.96367044225335 -14.606230511516333 C-13.202939341217279 -16.932986774295568, -20.514872246732317 -19.143013682216406, -24.098333904892208 -17.854829301685093 C-27.6817955630521 -16.56664492115378, -30.008115726461014 -12.717383041232823, -30.4644403912127 -6.877124228328467 C-30.920765055964388 -1.03686541542411, -30.322564599663018 12.10933987473448, -26.836281893402337 17.186723575741052 C-23.349999187141655 22.264107276747623, -14.99891710852583 22.792957474539676, -9.546744153648614 23.58717797771096 C-4.094571198771397 24.381398480882247, 2.8816337130963805 23.0051575837036, 5.876755835860967 21.952046594768763 C8.871877958625554 20.898935605833927, 7.220446914682785 20.232732194413742, 8.42398858293891 17.268512044101954 C9.627530251195033 14.304291893790166, 13.297397170712552 7.224322257190943, 13.098005845397712 4.166725692898035 C12.898614520082871 1.1091291286051277, 9.303817488998174 1.824271847556035, 7.227640631049871 -1.0770673416554928 C5.151463773101568 -3.9784065308670207, 3.7197127523521583 -11.572423917303482, 0.6409446977078916 -13.24130944237113 C-2.437823356936375 -14.910194967438777, -8.860198614746333 -13.134702211866777, -11.24496769681573 -11.090380492061378 C-13.629736778885126 -9.046058772255979, -13.196146104484797 -4.277984585613012, -13.667669794708491 -0.9753791235387324 C-14.139193484932186 2.327226338535548, -15.010859209050734 7.048583453645309, -14.074109838157892 8.725252280384302 C-13.137360467265049 10.401921107123295, -8.869515337298314 8.538694939762355, -8.047173569351434 9.084633836895227 M2.30608294531703 -0.8301466016471388 C2.3073432402312757 -1.9465341294308505, 2.2739747051894668 -5.614453715930383, -0.0030143590271469733 -7.458624599426985 C-2.2800034232437607 -9.302795482923587, -7.564983133822679 -10.66009754622976, -11.355851439982652 -11.895171902626753 C-15.146719746142626 -13.130246259023746, -20.248732181737818 -15.975936332990726, -22.748224195986985 -14.869070737808942 C-25.247716210236153 -13.762205142627158, -26.150724586993455 -10.216356469442447, -26.352803525477647 -5.253978331536055 C-26.55488246396184 -0.2916001936296624, -25.74891770636042 10.618526484519244, -23.960697826892137 14.905198089629412 C-22.172477947423854 19.19186969473958, -20.265409521609545 19.564352177331845, -15.623484248667957 20.466051299124956 C-10.981558975726369 21.367750420918068, -0.6980011395116654 20.13118734076619, 3.8908538107573984 20.315392820388077 C8.479708761026462 20.499598300009964, 9.936183416495721 24.562744539926452, 11.909645452946425 21.57128417685628 C13.883107489397128 18.57982381378611, 16.523327414641777 5.649793631583453, 15.731626029461623 2.366630641967058 C14.939924644281467 -0.9165323476493366, 10.005864123155673 4.664015930841366, 7.159437141865492 1.8723062391579148 C4.3130101605753115 -0.9194034525255361, 1.8330236852665744 -12.127047872195641, -1.3469358582794664 -14.38362750813365 C-4.526895401825508 -16.64020714407166, -9.56645854746302 -13.96791437909007, -11.920320119410754 -11.667171576470135 C-14.274181691358487 -9.3664287738502, -15.074003473470608 -3.6643762330710885, -15.470105289965868 -0.5791706924140456 C-15.866207106461129 2.5060348482429973, -16.028740324527025 4.8025916309654715, -14.296931018382312 6.844061667472124 C-12.565121712237596 8.885531703978776, -5.43412124906977 11.75339448645711, -5.079249453097582 11.669649526625872" stroke="#000000" stroke-width="1" fill="none"></path></g></g><g><g transform="translate(507.6484375 176.09765625) rotate(0 -4.86327137297036 -10.414514216030824)"><path d="M-1.281764457374811 2.347878060489893 C0.566101958602667 1.995664542665084, 6.343884120633205 -0.5765139562388262, 8.446076657623053 -2.105534877628088 C10.5482691946129 -3.63455579901735, 10.804714228957891 -3.42109459862113, 11.331390764564276 -6.826247467845678 C11.85806730017066 -10.231400337070227, 12.14848933443427 -18.92120731497804, 11.606135871261358 -22.536452092975377 C11.063782408088446 -26.151696870972714, 10.437766403208176 -26.4651903214554, 8.0772699855268 -28.517716135829687 C5.716773567845425 -30.570241950203975, 0.4293732347587742 -33.626407875865695, -2.5568426348268987 -34.8516069792211 C-5.5430585044125715 -36.07680608257651, -6.699549871434767 -38.42301590268811, -9.840025231987237 -35.86891075596213 C-12.980500592539707 -33.31480560923616, -19.236315740893282 -23.700514076401788, -21.399694798141716 -19.52697609886527 C-23.56307385539015 -15.35343812132875, -22.645060115804277 -14.313907279819249, -22.82029957547784 -10.827682890743016 C-22.995539035151403 -7.341458501666784, -22.992913530021905 -1.0644243540863192, -22.4511315561831 1.390370235592127 C-21.909349582344294 3.8451648252705732, -22.518100267400342 2.3925391929845015, -19.569607732445 3.9010846473276617 C-16.621115197489658 5.409630101670822, -8.302073778460421 9.044296186914048, -4.760176346451043 10.441642961651088 C-1.2182789144416648 11.838989736388127, 0.3379051946103575 13.571388619889815, 1.681776859611273 12.285165295749902 C3.0256485246121887 10.99894197160999, 3.598508201291164 4.750322025765975, 3.303053643554449 2.7243030168116094 C3.007599085817734 0.6982840078572434, 0.08747449939449639 0.785206105063359, -0.09095048680901519 0.12905124202370644 M3.2178963379561907 1.1541294832527642 C5.0784270593027285 -0.0927328980465727, 5.9149344194432105 -4.674206765145064, 7.088504844158888 -6.7345426063239575 C8.262075268874566 -8.794878447502851, 9.261802182644606 -8.82181552057465, 10.259318886250258 -11.2078855638206 C11.256835589855909 -13.593955607066551, 13.788865716109674 -18.419554128299158, 13.0736050657928 -21.050962865799665 C12.358344415475925 -23.682371603300172, 8.058740579734247 -24.234048564881085, 5.967754984349012 -26.99633798882365 C3.8767693889637784 -29.758627412766216, 2.9397715000808238 -36.91174251521627, 0.5276914934813979 -37.62469940945506 C-1.884388513118028 -38.337656303693855, -5.701259296288091 -34.391996330867215, -8.504725055247544 -31.274079354256394 C-11.308190814206997 -28.156162377645575, -14.610564374476668 -22.002972446729743, -16.293103060275314 -18.917197549790146 C-17.97564174607396 -15.83142265285055, -17.866387549589078 -15.99713017269969, -18.599957170039417 -12.759429972618818 C-19.333526790489756 -9.521729772537947, -20.591842428396145 -2.4279444436728954, -20.694520782977342 0.5090036506950857 C-20.79719913755854 3.445951745063067, -22.543011367668708 2.1488181387881435, -19.216027297526598 4.862258593589067 C-15.889043227384487 7.575699048389991, -4.454414224177599 15.925307639787595, -0.7326163621246815 16.789646379500628 C2.9891814999282365 17.65398511921366, 2.655080186973016 12.432111624429623, 3.1147598747909075 10.048291031867265 C3.574439562608799 7.664470439304907, 2.438660342345635 4.347656199485064, 2.025461764782667 2.486722824126482 C1.6122631872196989 0.6257894487679005, 1.4320407601694263 -0.8834866949419179, 0.6355684094130991 -1.1173092202842234" stroke="#000000" stroke-width="1" fill="none"></path></g></g><g><g transform="translate(523.15625 187.390625) rotate(0 13.52954060955642 49.51129238784313)"><path d="M-1.247528662532568 -2.656069109588861 C0.7742446360488735 -1.38574099317193, 8.21166493271788 -1.1765900668998563, 13.028636036068201 5.198690798133612 C17.845607139418522 11.573971663167079, 25.852000468720995 24.421136047691107, 27.654297957569362 35.59561608061195 C29.45659544641773 46.77009611353279, 27.44487684741616 61.40759329224627, 23.84242096915841 72.24557099565864 C20.23996509090066 83.08354869907102, 9.068362102657556 95.70835946624477, 6.039562688022852 100.62348230108618 M3.270717278569937 2.0737538494169714 C4.918553291410208 2.8573619538048907, 7.3440864223738505 -4.218862883498271, 11.272690206617117 1.697557364851236 C15.201293990860384 7.613977613200743, 24.647537113279107 25.423838845640418, 26.842339984029532 37.572275339514015 C29.037142854779958 49.72071183338761, 28.351636658757926 63.9037799037993, 24.441507431119682 74.58817632809281 C20.531378203481438 85.27257275238634, 7.292288379122814 97.44031738733251, 3.3815646182000636 101.67865388527512" stroke="#000000" stroke-width="1" fill="none"></path></g></g><g><g transform="translate(457.89453125 266.130859375) rotate(0 39.52868866339327 19.71862770327928)"><path d="M2.5971550963819023 0.07365745082497588 C7.362042691558599 5.992061100155116, 17.223309248934186 31.78875009392699, 27.32740252241492 38.02294074073434 C37.43149579589566 44.25713138754169, 54.693804782877365 41.879320106655356, 63.2217147372663 37.47880133166909 C71.74962469165524 33.07828255668282, 76.09289961084724 15.80841729020079, 78.49486224874855 11.619828090816736 M0.5625150780379773 -2.3546680288016795 C5.025006452053785 3.9290772966047127, 14.622702980488537 26.67023262058695, 24.828175464123486 33.673609954863785 C35.03364794775844 40.67698728914062, 52.92351585273941 44.23570675089955, 61.79534997984767 39.66559597685933 C70.66718410695593 35.095485202819106, 74.80593725567063 10.4752372268339, 78.05918022677302 6.2529453106224535" stroke="#000000" stroke-width="1" fill="none"></path></g></g><g><g transform="translate(472.28125 189.05859375) rotate(0 -8.830420997565966 31.060402802318322)"><path d="M1.9372121192514893 2.3662083886563776 C1.735007248073816 1.73174677118659, 2.397594882796208 -4.771110460907221, -1.073621167987585 -1.5861499287188052 C-4.544837218771377 1.5988106034696106, -16.428266785790523 10.448306022336086, -18.89008418545127 21.475971581786872 C-21.351901585112014 32.50363714123766, -16.67129789814353 57.76197121366859, -15.844525565952063 64.5798434279859 M-0.45568265810608866 1.1824105609953408 C-0.8947076071798803 0.685968820005656, -0.3181350475052991 -2.6505760449667766, -2.418560193926096 1.1821289934217933 C-4.518985340346893 5.014834031810363, -10.938141591300568 14.494902580330768, -13.058233536630869 24.17864079132676 C-15.17832548196117 33.862379002322754, -14.608846936772267 52.83899423256516, -15.139111865907907 59.28455825939774" stroke="#000000" stroke-width="1" fill="none"></path></g></g><g><g transform="translate(527.2578125 185.578125) rotate(0 9.624151086050233 36.367866479903455)"><path d="M-0.11040270105004302 1.9512176133692263 C3.432924479494492 5.898591345300277, 17.191620693852503 10.506497329225141, 20.88010244593024 21.831417498737572 C24.56858419800798 33.15633766825, 21.97958423520128 61.35632052595417, 22.020487811416388 69.90073863044381 M-3.6148598094284536 0.5421390791237357 C-0.3355177477498854 5.103840031971535, 15.159079924076796 13.304332819332679, 19.090175881832838 25.24624195292592 C23.02127183958888 37.18815108651916, 19.656527216086786 65.07095085019867, 19.971715937107803 72.19359388068318" stroke="#000000" stroke-width="1" fill="none"></path></g></g><g><g transform="translate(328.203125 292.66015625) rotate(0 -9.04917680919175 26.17952475726605)"><path d="M2.75534149184823 -2.5108469940721987 C-0.7596647404134278 5.994409253448249, -14.625824918597937 42.32748977566759, -18.455407109111547 51.26999857649207 M0.8065740881860259 2.297810827642679 C-3.346550490607817 11.259028286685545, -18.301087651799122 46.226762087891494, -20.853695110231637 54.869896508604285" stroke="#000000" stroke-width="1" fill="none"></path></g></g><g><g transform="translate(354.76171875 292.20703125) rotate(0 10.561078177094487 25.785361367613064)"><path d="M1.8694306947290897 0.8890652678906918 C2.3537490067382656 6.094996971140306, -1.4958991271754103 24.452320657422145, 1.806265101581812 32.68287470564246 C5.1084293303390345 40.913428753862775, 18.755089841037986 47.057081328084074, 21.682416067272424 50.27238955721259 M-0.5602597130835059 -1.0966102539002898 C0.8796658383309839 4.4130414499342425, 3.439506932348013 27.064886579265192, 6.943152729123831 36.025543786436316 C10.446798525899649 44.98620099360744, 18.404703126996754 49.5400078437229, 20.4616150675714 52.66733298912644" stroke="#000000" stroke-width="1" fill="none"></path></g></g><g><g transform="translate(486.33984375 309.03125) rotate(0 -15.670373176932344 25.331637523312565)"><path d="M2.7221855260431767 -1.3824723698198795 C0.4129181243479252 5.81335852369666, -8.064064095666012 37.712168314307924, -13.908919825404883 45.58657663092017 C-19.753775555143754 53.46098494753242, -28.994914625336726 45.912057870874804, -32.34694885239005 45.863977529853585 M0.7554191695153714 4.038731676489116 C-1.7523035944998262 12.84910135721167, -9.325341935704152 41.20955183322231, -15.128400443941356 48.677639256864786 C-20.93145895217856 56.145726680507266, -30.875073109219468 49.048549033552405, -34.06293187990784 48.84725621834397" stroke="#000000" stroke-width="1" fill="none"></path></g></g><g><g transform="translate(528.80078125 307.66015625) rotate(0 15.51129345670347 27.859068352590782)"><path d="M-1.6266157768666742 -0.7701651312410829 C-0.15248194361726441 7.821443401028713, 6.335988666365544 39.73052871450782, 11.0206686116755 49.158616688102484 C15.705348556985456 58.58670466169715, 22.876708215226728 55.78186658446988, 26.481463894993066 55.79836271032691 C30.086219574759404 55.814858836183944, 31.737758320321642 50.23643753752113, 32.649202690273526 49.257593443244694 M2.685840016454458 -3.656565726846457 C3.749219038734833 5.549562519143025, 6.078403903096914 41.93642097448309, 9.737518144696951 52.2824251665175 C13.396632386296988 62.628429358551905, 20.83532281503081 58.733880394051475, 24.640525466054676 58.41945942535997 C28.44572811707854 58.10503845666846, 30.66302730028828 51.84203617389003, 32.56873405084014 50.395899354368446" stroke="#000000" stroke-width="1" fill="none"></path></g></g><g><g transform="translate(142.28515625 282.21875) rotate(0 -14.910187839120624 30.502005815058908)"><path d="M0.7512919209897517 0.012318096309900106 C-0.07776350751519212 6.754812067498763, -0.07981253241499298 31.549716545889773, -2.5400480248034003 41.00429471507668 C-5.000283517191807 50.45887288426359, -9.353186271339656 53.43143366351724, -14.010121033340692 56.73978711143136 C-18.667055795341728 60.048140559345484, -27.855992942800125 59.99668934519092, -30.481656596809625 60.85441540256143 M-2.28538810685277 -2.4493058900535107 C-3.6166283205648266 4.558088015268246, -3.1826454762121044 33.180686515520016, -4.231493773013353 43.62658287242055 C-5.280342069814602 54.07247922932108, -4.188448916623989 56.92161647672455, -8.578477887660265 60.22607225134969 C-12.96850685869654 63.53052802597483, -26.414749946147204 62.93071411167582, -30.571667599231006 63.4533175201714" stroke="#000000" stroke-width="1" fill="none"></path></g></g><g><g transform="translate(163.2265625 283.1796875) rotate(0 12.436251110825538 29.125909472852925)"><path d="M0.4098026610910894 2.384253527969122 C0.7818175571660202 7.994208210955063, -4.387511108567318 24.251668972025314, 0.4770485974848271 32.88628669008612 C5.3416083035369715 41.52090440814693, 24.952662175645433 50.33335453892748, 29.597160897403956 54.19195983633399 M-2.8122572506964207 1.2102516330778599 C-2.7357300350566707 7.281050696124634, -7.572049321085215 26.660945853938664, -2.248419698625803 35.96616513386369 C3.0752099238336084 45.27138441378872, 23.823695681343477 54.57837475592892, 29.12952048406005 57.04156731262803" stroke="#000000" stroke-width="1" fill="none"></path></g></g><g><g transform="translate(151.26953125 160.71484375) rotate(0 22.749784458279635 96.55427029165628)"><path d="M1.5246971704065801 -2.1428873039782044 C2.8125565387308598 -2.6898293393353616, 0.8814071434239557 -6.309972490618625, 6.622887168079615 -1.0525721289217471 C12.364367192735273 4.204828232775132, 29.971811598290998 19.636411104847987, 35.97357731834054 29.40151486620307 C41.97534303839008 39.16661862755815, 42.156822325537604 44.796517692257964, 42.63348148837686 57.538050439208746 C43.11014065121611 70.27958318615953, 40.49198131735126 96.64905007109046, 38.83353229537606 105.85071134790778 C37.17508327340086 115.0523726247251, 35.48139827425281 108.05825791582465, 32.68278735652566 112.74801810011267 C29.884176438798505 117.4377782844007, 19.723714146763086 119.95167215093969, 22.04186678901315 133.98927245363592 C24.36001943126321 148.02687275633215, 43.04243967706958 186.56854245091478, 46.591703210026026 196.97361991629003 M-1.0921342934668066 2.8655200637876987 C1.2076110007862249 2.5041085352003574, 6.2103642855584615 -1.6864311824738976, 12.094936596006155 2.005363313108683 C17.979508906453848 5.697157808691264, 28.8809637191395 15.505103249301511, 34.215299569219354 25.01628703728318 C39.54963541929921 34.52747082526485, 43.741993908335765 45.573990942388775, 44.10095169648528 59.0724660409987 C44.4599094846348 72.57094113960862, 38.969905048459765 97.25214107647538, 36.369046298116444 106.00713762894273 C33.768187547773124 114.76213418141008, 30.780652543157338 107.50773887291551, 28.495799194425345 111.60244535580277 C26.210945845693352 115.69715183869003, 19.858993879407645 116.59964663639664, 22.659926205724478 130.57537652626633 C25.46085853204131 144.551106416136, 41.17882716918985 183.75584125493964, 45.30139315232635 195.4568246950209" stroke="#000000" stroke-width="1" fill="none"></path></g></g><g><g transform="translate(163.5390625 155.390625) rotate(0 30.682692325711287 94.4266450327635)"><path d="M1.9479286529123785 -1.135995266586542 C3.5759616153935596 -1.2827747958401838, 5.589929661899806 -1.6545091845095161, 8.822486601024867 -0.10475067868828791 C12.055043540149928 1.4450078271329403, 18.376477457831303 5.434903433173895, 21.343270287662744 8.162555768340827 C24.310063117494185 10.890208103507758, 23.701226903746527 11.381032206863164, 26.623243580013515 16.2611633323133 C29.545260256280503 21.141294457763433, 35.46971999183297 29.009715352704127, 38.87537034526467 37.44334252104163 C42.28102069869637 45.87696968937913, 44.725779964278146 54.15082754517595, 47.057145700603726 66.86292634233833 C49.388511436929306 79.5750251395007, 52.572865479936205 96.83137887542446, 52.863564763218164 113.71593530401587 C53.154264046500124 130.60049173260728, 47.31117998932799 154.94387422626218, 48.8013414002955 168.1702649138868 C50.29150281126301 181.3966556015114, 59.570484234641 188.52339660550157, 61.80453322902322 193.07427942976355 M-0.4391485776007178 -4.220989364236593 C0.8627350833515324 -4.00070299650232, 2.8819284926354887 1.9410492576658733, 6.3523989354074 3.253542300611735 C9.822869378179313 4.566035343557597, 17.151373039335013 1.0061848653852934, 20.38367407903075 3.6539688934385772 C23.61597511872649 6.301752921491861, 21.907241180191438 13.256170479208233, 25.74620517358184 19.140246468931437 C29.58516916697224 25.02432245865464, 39.33593102718393 30.215936112155518, 43.41745803937316 38.95842483177781 C47.498985051562386 47.700913551400106, 48.314726108958325 58.41017740224799, 50.23536724671722 71.5951787866652 C52.15600838447611 84.78018017108242, 54.28981620416045 102.29312123750647, 54.941304865926504 118.06843313828111 C55.59279352769256 133.84374503905576, 53.45007338310282 154.29355179761848, 54.14429921731353 166.24705019131304 C54.83852505152424 178.2005485850076, 58.656531174431244 184.88189388727147, 59.106659871190786 189.78942350044846" stroke="#000000" stroke-width="1" fill="none"></path></g></g><g><g transform="translate(162.94140625 157.5078125) rotate(0 27.73247007474305 96.77506551708578)"><path d="M0.5163194514811038 -2.343757555633783 C2.160822242250045 -2.3412110147376852, 6.095190781106551 -0.753227080653111, 9.357157001644373 0.5756263755261899 C12.619123222182195 1.9044798317054907, 17.90397521033883 3.9362063907086844, 20.088116774708034 5.629363181442022 C22.272258339077236 7.3225199721753595, 20.721420273929834 8.399136617034674, 22.46200638785958 10.734567119926215 C24.20259250178933 13.069997622817755, 29.59942213073373 11.96335493947069, 30.531633458286525 19.641946198791267 C31.46384478583932 27.320537458111843, 26.486231106271347 46.89519436582923, 28.055274353176355 56.80611467584968 C29.624317600081362 66.71703498587013, 35.85666002606352 59.71697748725613, 39.94589293971658 79.10746805891395 C44.035125853369635 98.49795863057177, 50.26703213229776 155.97199043656389, 52.59067183509469 173.14905810579657 C54.91431153789162 190.32612577502925, 54.41807170882821 181.42396205489834, 53.88773115649819 182.16987407431006 C53.357390604168174 182.91578609372178, 51.78016449784239 175.449772225072, 49.408628521114586 177.6245302222669 C47.03709254438678 179.79928821946183, 41.29283686652779 192.76080603823064, 39.65851529613137 195.21842205747961 C38.024193725734946 197.6760380767286, 39.10993809873859 192.66141733552018, 39.602699098736046 192.3702263377607 M-2.64791705980897 2.5556059612333772 C-1.2145960209270321 3.0038071645796296, 4.168635677744945 3.1987118845681355, 7.813479696363211 4.288423148542643 C11.458323714981477 5.37813441251715, 16.66976540510853 8.834698118915162, 19.221147051900626 9.093873545080424 C21.77252869869272 9.353048971245686, 21.602299195379018 3.918887223949034, 23.121769577115774 5.843475705534219 C24.64123995885253 7.768064187119404, 27.187635160535574 12.647849837690593, 28.33796934232116 20.641404434591532 C29.488303524106744 28.63495903149247, 27.766129745890698 44.642427431494, 30.023774667829276 53.80480328693986 C32.28141958976785 62.96717914238572, 38.410639396756885 56.05518022671342, 41.88383887395263 75.6156595672667 C45.35703835114837 95.17613890781999, 48.15813514177998 153.75202781970304, 50.862971531003716 171.16767933025957 C53.56780792022745 188.5833308408161, 58.22925988460581 177.98172834848364, 58.112857209295036 180.10956863060593 C57.99645453398426 182.23740891272823, 53.3169221538802 182.33192015940944, 50.16455547913909 183.93472102299333 C47.01218880439798 185.53752188657722, 40.28244193658232 188.41380930716795, 39.19865716084838 189.72637381210924 C38.11487238511443 191.03893831705054, 42.93739963635802 191.33729976311326, 43.661846824735406 191.81010805264114" stroke="#000000" stroke-width="1" fill="none"></path></g></g><g><g transform="translate(162.609375 156.63671875) rotate(0 27.78838166296481 89.80977987341285)"><path d="M2.1015050984919066 -2.247390697151422 C4.820673976093531 -2.270979155848423, 11.595142358293135 -2.5924676237006983, 14.934907803684473 -1.6122833468019961 C18.27467324907581 -0.6320990699032941, 19.746768635263045 1.9384542408088843, 22.14009777083993 3.6337149642407893 C24.533426906416814 5.328975687672695, 26.382731002320845 4.623838029553493, 29.294882617145777 8.559280993789434 C32.20703423197071 12.494723958025375, 37.852712076654036 21.110485500345625, 39.613007459789515 27.246372749656437 C41.37330284292499 33.38225999896725, 39.77123822545012 22.999625494331124, 39.85665491595864 45.3746044896543 C39.94207160646717 67.74958348497748, 39.693981649229926 139.17230456098915, 40.12550760284066 161.49624672159553 C40.5570335564514 183.8201888822019, 39.83690100684762 175.9116525831322, 42.44581063762307 179.3182574532926 C45.05472026839852 182.724862323453, 53.21530391549071 181.11551298523943, 55.77896538749337 181.93587594255806 M-0.20220206156372988 2.704286257177592 C2.214844868431489 3.112164889723063, 8.992110075404247 0.27620504672328616, 12.373170219510794 0.9127910055220125 C15.75423036361734 1.549376964320739, 17.17857600475351 4.978653581688802, 20.084158803075553 6.52380200996995 C22.989741601397597 8.068950438251099, 27.045114616801342 6.543292617549499, 29.806667009443046 10.183681575208903 C32.56821940208475 13.824070532868307, 34.511795898526906 22.865651125659546, 36.65347315892577 28.366135755926372 C38.795150419324635 33.8666203861932, 41.74447108690937 21.323080994039774, 42.656730571836235 43.186589356809854 C43.5689900567631 65.05009771957994, 42.60107475226124 136.903480985711, 42.12703006848693 159.54718593254685 C41.65298538471262 182.1908908793827, 38.147432089895005 175.9042290303608, 39.81246246919036 179.04881903782487 C41.47749284848571 182.19340904528894, 50.019654753456514 177.56147909934322, 52.11721234425902 178.4147259773314" stroke="#000000" stroke-width="1" fill="none"></path></g></g><g><g transform="translate(140.0625 159.42578125) rotate(0 -22.148828671127546 93.47453927225473)"><path d="M1.7209297679364681 0.6008280612528325 C1.7159855149686336 0.7650482592483362, 1.6292870861788589 -4.818219310293595, -2.1841240145266054 0.719226036220789 C-5.99753511523207 6.256671382735173, -17.69180114045739 17.92248752291004, -21.15953683629632 33.82550014033914 C-24.627272532135247 49.728512757768236, -21.663114942858616 81.37494743838907, -22.990538189560176 96.13730174079538 C-24.317961436261736 110.89965604320169, -27.834597354878984 109.36800971999764, -29.124076316505672 122.39962595477701 C-30.41355527813236 135.43124218955637, -27.911660160372655 163.95734656825664, -30.727411959320307 174.32699914947153 C-33.54316375826796 184.69665173068643, -43.81130368486047 182.0947239336868, -46.01858711019158 184.61754144206643 M-0.7893754287064074 -1.5413190869987012 C-0.9569237275421618 -0.8903303126990796, -1.8283196063339715 -2.1242069304486124, -4.329117264300585 4.230066196471453 C-6.829914922267198 10.584339323391518, -12.593546976596116 20.922564603835347, -15.79416137650609 36.58431967452169 C-18.994775776416063 52.24607474520803, -20.83567493076126 83.77177138999104, -23.532803663760426 98.2005966205895 C-26.22993239675959 112.62942185118794, -31.278962908933558 110.71834995145599, -31.976933774501084 123.15727105811239 C-32.67490464006861 135.59619216476878, -25.638347434550525 161.91593472833435, -27.720628857165575 172.83412326052786 C-29.802910279780626 183.75231179272137, -41.548895239382986 185.82612891073026, -44.470622310191395 188.66640225127338" stroke="#000000" stroke-width="1" fill="none"></path></g></g><g><g transform="translate(135.50390625 162.87109375) rotate(0 -23.051750826239584 89.97885416090492)"><path d="M-1.2918454311788081 -2.670808432251215 C-2.7124152722458046 -2.877294077227513, -2.611853089183569 -7.307863813390335, -6.721958198398352 0.2776801131665705 C-10.832063307613135 7.863224039723476, -19.89908408150077 25.67857791806261, -25.952476086467506 42.84245512709022 C-32.00586809143424 60.00633233611782, -40.74812969987591 86.10925208156307, -43.042310228198765 103.26094336733222 C-45.33649075652162 120.41263465310136, -41.2561823271215 136.55622085159024, -39.71755925640464 145.75260284170508 C-38.17893618568778 154.94898483181993, -34.10923642938336 155.03490577762324, -33.810571803897616 158.4392353080213 C-33.511907178411874 161.84356483841935, -35.34302605614066 161.97583257580794, -37.92557150349021 166.17858002409338 C-40.508116950839764 170.3813274723788, -47.99094150687257 181.16512592062352, -49.30584448799491 183.65571999773383 M3.202342835515738 2.051013180166483 C1.3005934805174675 2.21487722530961, -4.684025162607432 -2.00602005665501, -8.630905183702708 4.057752486616373 C-12.577785204797985 10.121525029887756, -14.785769377301136 21.479331005165974, -20.478937291055917 38.43364843979478 C-26.1721052048107 55.387965874423585, -39.07586213325461 87.65696045850714, -42.789912666231395 105.7836570943892 C-46.50396319920818 123.91035373027125, -43.47845219348868 138.86083477472266, -42.76324048891664 147.19382825508714 C-42.048028784344595 155.52682173545162, -39.31721957102418 151.8406756335, -38.498642438799145 155.7816179765761 C-37.68006530657411 159.72256031965216, -36.95964636221528 166.12370471452672, -37.85177769556642 170.83948231354356 C-38.74390902891756 175.5552599125604, -42.054933413416144 182.93180515582364, -43.85143043890595 184.07628357067705" stroke="#000000" stroke-width="1" fill="none"></path></g></g><g><g transform="translate(552.0078125 239.58984375) rotate(0 4.848506621271326 9.016161995290531)"><path d="M0.6179268859326839 2.3487108565866945 C2.6164570592343805 2.337117761125167, 12.537538069734971 -3.827179573227962, 12.188164546340705 -0.2787148378789426 C11.838791022946438 3.269749897470077, 1.3337009213864803 19.471316871792077, -1.4783142544329166 23.63949926868081 M-2.4911513037979605 1.1554143686592582 C-0.6462706068654855 0.24994745448231714, 11.292539202819267 -7.994151127785445, 11.37339580103755 -5.020819366425276 C11.454252399255832 -2.047487605065108, 0.6497908771534759 14.79623836711049, -2.0060117144882676 18.995404936820268" stroke="#000000" stroke-width="1" fill="none"></path></g></g><g><g transform="translate(455.01953125 242.3671875) rotate(0 -0.7003265048229537 12.230806169658905)"><path d="M0.9179491065442562 -2.478678002208471 C-0.3037609952191511 -1.842312723646561, -8.530117525408665 -1.056063793351253, -8.232250855118036 3.847097597271204 C-7.934384184827406 8.75025898789366, 0.9740582250058649 23.3415323831141, 2.7051491282880304 26.94029034152627 M-2.028259877711535 2.3474429865181445 C-3.4206859027842684 2.115474200596412, -11.516910679688058 -4.015080680499475, -9.74600403264165 -0.612534645050764 C-7.975097385595244 2.790011390397946, 6.723232026547194 17.89677325124542, 8.597180004566908 22.762719199210405" stroke="#000000" stroke-width="1" fill="none"></path></g></g></svg>